<svg xmlns="http://www.w3.org/2000/svg" width="1316" height="540" fill="none"><path fill="#1e1e1e" d="M0 0h1316v540H0z"/><g id="background-layer"><path id="navy-gradient-background" fill="url(#paint0_linear_1_2)" d="M1308 0H8C3.582 0 0 4.498 0 10.047v519.906C0 535.502 3.582 540 8 540h1300c4.42 0 8-4.498 8-10.047V10.047C1316 4.498 1312.42 0 1308 0"/><g id="grid-vertical" opacity=".22"><g id="Vector"><path fill="#000" d="M24 0v454.605Zm18 0v454.605Zm20 0v454.605Zm19 0v454.605Zm20 0v454.605Zm19 0v454.605Zm21 0v454.605Zm20 0v454.605Zm20 0v454.605Zm20 0v454.605Zm21 0v454.605Zm20 0v454.605Zm20 0v454.605Zm20 0v454.605Zm20 0v454.605Zm20 0v454.605Zm20 0v454.605Zm20 0v454.605Zm20 0v454.605Zm20 0v454.605Zm20 0v454.605Zm20 0v454.605Zm20 0v454.605Zm20 0v454.605Zm20 0v454.605Zm20 0v454.605Zm20 0v454.605Zm20 0v454.605Zm20 0v454.605Zm20 0v454.605Zm20 0v454.605Zm20 0v454.605Zm20 0v454.605Zm20 0v454.605Zm20 0v454.605Zm20 0v454.605Zm20 0v454.605Zm20 0v454.605Zm20 0v454.605Zm20 0v454.605Zm20 0v454.605Zm20 0v454.605Zm20 0v454.605Zm20 0v454.605Zm20 0v454.605Zm20 0v454.605Zm20 0v454.605Zm20 0v454.605Zm20 0v454.605Zm20 0v454.605Zm20 0v454.605Zm20 0v454.605Zm20 0v454.605Zm20 0v454.605Zm20 0v454.605Zm20 0v454.605Zm20 0v454.605Zm20 0v454.605Zm20 0v454.605Zm20 0v454.605Zm20 0v454.605Zm20 0v454.605Zm20 0v454.605Zm20 0v454.605Z"/><path stroke="#1b3951" d="M24 0v454.605M42 0v454.605M62 0v454.605M81 0v454.605M101 0v454.605M120 0v454.605M141 0v454.605M161 0v454.605M181 0v454.605M201 0v454.605M222 0v454.605M242 0v454.605M262 0v454.605M282 0v454.605M302 0v454.605M322 0v454.605M342 0v454.605M362 0v454.605M382 0v454.605M402 0v454.605M422 0v454.605M442 0v454.605M462 0v454.605M482 0v454.605M502 0v454.605M522 0v454.605M542 0v454.605M562 0v454.605M582 0v454.605M602 0v454.605M622 0v454.605M642 0v454.605M662 0v454.605M682 0v454.605M702 0v454.605M722 0v454.605M742 0v454.605M762 0v454.605M782 0v454.605M802 0v454.605M822 0v454.605M842 0v454.605M862 0v454.605M882 0v454.605M902 0v454.605M922 0v454.605M942 0v454.605M962 0v454.605M982 0v454.605M1002 0v454.605M1022 0v454.605M1042 0v454.605M1062 0v454.605M1082 0v454.605M1102 0v454.605M1122 0v454.605M1142 0v454.605M1162 0v454.605M1182 0v454.605M1202 0v454.605M1222 0v454.605M1242 0v454.605M1262 0v454.605M1282 0v454.605"/></g></g><g id="grid-horizontal" opacity=".18"><g id="Vector_2"><path fill="#000" d="M0 99.21h1316Zm0 22.604h1316Zm0 23.86h1316Zm0 25.117h1316Zm0 23.86h1316Zm0 26.372h1316Zm0 25.117h1316Zm0 25.116h1316Zm0 25.116h1316Zm0 25.116h1316Zm0 25.117h1316Zm0 25.116h1316Zm0 25.116h1316Zm0 25.116h1316Zm0 25.117h1316Z"/><path stroke="#1b3951" d="M0 99.21h1316M0 121.813h1316M0 145.674h1316M0 170.791h1316M0 194.651h1316M0 221.023h1316M0 246.14h1316M0 271.256h1316M0 296.372h1316M0 321.488h1316M0 346.605h1316M0 371.721h1316M0 396.837h1316M0 421.953h1316M0 447.07h1316"/></g></g><path id="bottom-shadow-band" fill="url(#paint1_linear_1_2)" d="M1316 454.605H0V540h1316z"/></g><g id="flow_fuel_pink" data-role="flow-fuel"><path id="Vector_3" stroke="#ff4f73" stroke-linecap="round" stroke-linejoin="round" stroke-width="5" d="M424 186.163q4.861 19.767 17.5 19.767h179.861q13.611 0 19.445 16.279 3.888 13.954 28.194 13.954"/><path id="Vector_4" stroke="#ff4f73" stroke-linecap="round" stroke-linejoin="round" stroke-width="5" d="M169 184.907h253q8 0 15-13.814 5-7.535 17-7.535h353"/><path id="Vector_5" stroke="#fff" stroke-linecap="round" stroke-linejoin="round" d="M169 184.907h253q8 0 15-13.814 5-7.535 17-7.535h353" opacity=".55"/><path id="Vector_6" stroke="#ff9aaa" stroke-dasharray="3 6" stroke-linecap="round" stroke-linejoin="round" d="M169 184.907h253q8 0 15-13.814 5-7.535 17-7.535h353" opacity=".8"/><path id="Vector_7" stroke="#ff4f73" stroke-linecap="round" stroke-linejoin="round" stroke-width="5" d="M807 164v87"/><path id="Vector_8" stroke="#fff" stroke-linecap="round" stroke-linejoin="round" d="M807 164v87" opacity=".55"/><path id="Vector_9" stroke="#ff9aaa" stroke-dasharray="3 6" stroke-linecap="round" stroke-linejoin="round" d="M807 164v87" opacity=".65"/><path id="Vector_10" fill="#ff6c86" d="M169 188.674c1.657 0 3-1.686 3-3.767s-1.343-3.767-3-3.767-3 1.686-3 3.767 1.343 3.767 3 3.767"/><path id="Vector_11" stroke="#fff" stroke-linecap="round" stroke-linejoin="round" d="M424 186.163q4.861 19.767 17.5 19.767h179.861q13.611 0 19.445 16.279 3.888 13.954 28.194 13.954" opacity=".55"/><path id="Vector_12" stroke="#ff9aaa" stroke-dasharray="3 6" stroke-linecap="round" stroke-linejoin="round" d="M424 186.163q4.861 19.767 17.5 19.767h179.861q13.611 0 19.445 16.279 3.888 13.954 28.194 13.954" opacity=".7"/></g><g id="flow_nox_green" data-role="flow-nox"><path id="Vector_13" stroke="#7edb50" stroke-linecap="round" stroke-linejoin="round" stroke-width="5" d="M169 294.163h402"/><path id="Vector_14" stroke="#fff" stroke-linecap="round" stroke-linejoin="round" d="M169 294.163h402" opacity=".55"/><path id="Vector_15" stroke="#cbff9b" stroke-dasharray="3 6" stroke-linecap="round" stroke-linejoin="round" d="M169 294.163h402" opacity=".65"/><path id="Vector_16" fill="#87e45c" d="M169 297.93c1.657 0 3-1.687 3-3.767s-1.343-3.768-3-3.768-3 1.687-3 3.768 1.343 3.767 3 3.767"/></g><g id="flow_air_blue" data-role="flow-air"><path id="Vector_17" stroke="#2c9dff" stroke-linecap="round" stroke-linejoin="round" stroke-width="5" d="M98 400.907h436.537q2.026 0 2.026-4.236V313H571"/><path id="Vector_18" stroke="#fff" stroke-linecap="round" stroke-linejoin="round" d="M98 400.907h436.537q2.026 0 2.026-4.236V313H571" opacity=".55"/><path id="Vector_19" stroke="#a9d6ff" stroke-dasharray="3 6" stroke-linecap="round" stroke-linejoin="round" d="M98 400.907h436.537" opacity=".75"/><path id="Vector_20" fill="#44b7ff" d="M98 404.674c1.657 0 3-1.686 3-3.767s-1.343-3.767-3-3.767-3 1.686-3 3.767 1.343 3.767 3 3.767"/></g><g id="valve-FSAGR"><g id="Vector_21"><path fill="#10131c" d="m247 173.605 13 11.302-13 11.302zm26 0-13 11.302 13 11.302z"/><path stroke="#ffd8df" stroke-linejoin="round" stroke-width="1.2" d="m260 184.907-13-11.302v22.604zm0 0 13-11.302v22.604z"/></g><g id="Vector_22"><path fill="#000" d="M260 172.349v25.116z"/><path stroke="#ffd8df" stroke-linejoin="round" d="M260 172.349v25.116"/></g></g><g id="valve-FSAG11"><g id="Vector_23"><path fill="#10131c" d="m502 152.256 13 11.302-13 11.302zm26 0-13 11.302 13 11.302z"/><path stroke="#ffd8df" stroke-linejoin="round" stroke-width="1.2" d="m515 163.558-13-11.302v22.604zm0 0 13-11.302v22.604z"/></g><g id="Vector_24"><path fill="#000" d="M515 151v25.116z"/><path stroke="#ffd8df" stroke-linejoin="round" d="M515 151v25.116"/></g></g><g id="valve-FSAG11A"><g id="Vector_25"><path fill="#10131c" d="m618 152.256 13 11.302-13 11.302zm26 0-13 11.302 13 11.302z"/><path stroke="#ffd8df" stroke-linejoin="round" stroke-width="1.2" d="m631 163.558-13-11.302v22.604zm0 0 13-11.302v22.604z"/></g><g id="Vector_26"><path fill="#000" d="M631 151v25.116z"/><path stroke="#ffd8df" stroke-linejoin="round" d="M631 151v25.116"/></g></g><g id="valve-FSAG12"><g id="Vector_27"><path fill="#10131c" d="m734 152.256 13 11.302-13 11.302zm26 0-13 11.302 13 11.302z"/><path stroke="#ffd8df" stroke-linejoin="round" stroke-width="1.2" d="m747 163.558-13-11.302v22.604zm0 0 13-11.302v22.604z"/></g><g id="Vector_28"><path fill="#000" d="M747 151v25.116z"/><path stroke="#ffd8df" stroke-linejoin="round" d="M747 151v25.116"/></g></g><g id="valve-nicvs1"><g id="Vector_29"><path fill="#0f1b1a" d="m257 282.86 13 11.303-13 11.302zm26 0-13 11.303 13 11.302z"/><path stroke="#bdffc0" stroke-linejoin="round" stroke-width="1.2" d="m270 294.163-13-11.303v22.605zm0 0 13-11.303v22.605z"/></g><g id="Vector_30"><path fill="#000" d="M270 281.605v25.116Z"/><path stroke="#bdffc0" stroke-linejoin="round" d="M270 281.605v25.116"/></g></g><g id="valve-NOJ"><g id="Vector_31"><path fill="#0f1b1a" d="m467 282.86 13 11.303-13 11.302zm26 0-13 11.303 13 11.302z"/><path stroke="#bdffc0" stroke-linejoin="round" stroke-width="1.2" d="m480 294.163-13-11.303v22.605zm0 0 13-11.303v22.605z"/></g><g id="Vector_32"><path fill="#000" d="M480 281.605v25.116Z"/><path stroke="#bdffc0" stroke-linejoin="round" d="M480 281.605v25.116"/></g></g><g id="valve-csgv"><g id="Vector_33"><path fill="#101827" d="m441 389.605 13 11.302-13 11.302zm26 0-13 11.302 13 11.302z"/><path stroke="#cbe5ff" stroke-linejoin="round" stroke-width="1.2" d="m454 400.907-13-11.302v22.604zm0 0 13-11.302v22.604z"/></g><g id="Vector_34"><path fill="#000" d="M454 388.349v25.116z"/><path stroke="#cbe5ff" stroke-linejoin="round" d="M454 388.349v25.116"/></g></g><g id="valve-CSBHX"><g id="Vector_35"><path fill="#101827" d="m264.5 389.605 13 11.302-13 11.302zm26 0-13 11.302 13 11.302z"/><path stroke="#cbe5ff" stroke-linejoin="round" stroke-width="1.2" d="m277.5 400.907-13-11.302v22.604zm0 0 13-11.302v22.604z"/></g><g id="Vector_36"><path fill="#000" d="M277.5 388.349v25.116z"/><path stroke="#cbe5ff" stroke-linejoin="round" d="M277.5 388.349v25.116"/></g></g><g id="BOX_ca_fqsg_cl"><path id="Vector_37" fill="#171529" stroke="#ed5c8d" d="M149 149.651H36c-2.761 0-5 2.811-5 6.279v52.744c0 3.468 2.239 6.279 5 6.279h113c2.761 0 5-2.811 5-6.279V155.93c0-3.468-2.239-6.279-5-6.279Z"/><path id="ca_fqsg_cl" fill="#ff8eab" d="M70.983 168.555q-.767 0-1.321-.362a2.36 2.36 0 0 1-.852-.998q-.3-.635-.299-1.452 0-.831.306-1.467.308-.639.86-.997.553-.363 1.292-.363.575 0 1.037.213t.756.597q.296.384.366.895h-.838a1.3 1.3 0 0 0-.426-.661q-.327-.291-.881-.291-.49 0-.86.256a1.67 1.67 0 0 0-.571.714 2.6 2.6 0 0 0-.203 1.076q0 .632.2 1.1.202.47.567.728.37.26.867.26.326 0 .593-.114a1.23 1.23 0 0 0 .714-.838h.838a1.94 1.94 0 0 1-1.087 1.481 2.4 2.4 0 0 1-1.058.223m4.975.015q-.52 0-.941-.196a1.6 1.6 0 0 1-.671-.571q-.249-.377-.249-.909 0-.47.185-.76.185-.296.494-.462t.681-.249q.377-.084.757-.135.497-.063.806-.095.313-.036.454-.118.146-.081.146-.284v-.028q0-.525-.288-.817-.284-.291-.862-.291-.6 0-.942.263a1.55 1.55 0 0 0-.479.561l-.795-.284a1.9 1.9 0 0 1 .568-.774q.359-.281.781-.391.426-.114.838-.114.262 0 .604.064.344.06.664.252.323.192.536.579t.213 1.037v3.594h-.838v-.739h-.043a1.5 1.5 0 0 1-.284.38q-.198.203-.529.345-.33.142-.806.142m.128-.753q.496 0 .838-.195a1.34 1.34 0 0 0 .696-1.155v-.767q-.053.064-.234.118a4 4 0 0 1-.412.088 18 18 0 0 1-.803.107 3 3 0 0 0-.61.138 1.05 1.05 0 0 0-.455.281q-.17.184-.17.504 0 .437.322.661.327.22.828.22m7.666.625v.781h-4.545v-.781zm3.186-5.455v.711h-2.94v-.711zm-2.06 5.455v-6.208q0-.468.22-.781.221-.312.573-.469a1.8 1.8 0 0 1 .742-.156q.309 0 .504.05t.291.092l-.241.725q-.064-.022-.178-.054a1 1 0 0 0-.291-.032q-.416 0-.6.21-.181.21-.181.614v6.009zm6.732 2.045v-2.883h-.071q-.093.149-.263.376a1.6 1.6 0 0 1-.487.401q-.315.174-.841.174-.682 0-1.204-.344a2.33 2.33 0 0 1-.817-.98q-.294-.636-.295-1.502 0-.86.295-1.492t.82-.976q.526-.345 1.215-.345.533 0 .842.178.313.173.475.398.168.22.26.362h.1v-.867h.809v7.5zm-1.549-2.684q.505 0 .853-.263a1.65 1.65 0 0 0 .529-.735 3 3 0 0 0 .18-1.09q0-.612-.177-1.069a1.56 1.56 0 0 0-.525-.718q-.348-.258-.86-.259-.532 0-.887.274-.352.27-.53.735a2.9 2.9 0 0 0-.174 1.037q0 .582.178 1.058.18.472.533.753.355.276.88.277m7.784-3.594-.752.213a1.4 1.4 0 0 0-.21-.366 1 1 0 0 0-.37-.298 1.34 1.34 0 0 0-.6-.117q-.5 0-.834.231-.33.227-.33.578 0 .313.227.494.228.181.71.302l.81.199q.732.177 1.09.543.36.363.359.934 0 .469-.27.838a1.8 1.8 0 0 1-.746.582q-.48.213-1.115.213-.834 0-1.381-.362t-.693-1.058l.796-.199q.114.44.43.661.319.22.834.22.585 0 .93-.249.35-.252.349-.603a.63.63 0 0 0-.2-.476q-.198-.196-.61-.291l-.91-.214q-.749-.177-1.1-.55-.348-.377-.348-.941 0-.462.26-.817.261-.355.713-.557a2.5 2.5 0 0 1 1.03-.203q.81 0 1.271.355.465.356.66.938m3.563 6.392a3.1 3.1 0 0 1-1.044-.156 2.2 2.2 0 0 1-.728-.405 2.2 2.2 0 0 1-.458-.533l.668-.469q.113.15.287.341.174.196.476.338.306.145.799.145.661 0 1.09-.319.43-.32.43-1.002v-1.108h-.071q-.092.15-.263.37a1.5 1.5 0 0 1-.483.387q-.312.167-.845.167a2.3 2.3 0 0 1-1.186-.313 2.2 2.2 0 0 1-.827-.909q-.302-.597-.302-1.449 0-.838.295-1.459a2.27 2.27 0 0 1 .82-.966 2.16 2.16 0 0 1 1.214-.345q.532 0 .846.178.315.173.482.398.171.22.263.362h.085v-.867h.81v5.611q0 .703-.319 1.144a1.8 1.8 0 0 1-.853.649q-.532.21-1.186.21m-.028-2.997q.504 0 .852-.231.348-.23.529-.664t.181-1.037q0-.59-.177-1.041a1.57 1.57 0 0 0-.526-.706q-.348-.256-.859-.256-.532 0-.888.27-.351.27-.53.724-.173.455-.173 1.009 0 .569.177 1.005.182.433.533.682.355.245.881.245m8.026.838v.781h-4.545v-.781zm2.973.113q-.766 0-1.321-.362a2.36 2.36 0 0 1-.852-.998q-.298-.635-.298-1.452 0-.831.305-1.467.31-.639.86-.997.554-.363 1.292-.363.575 0 1.037.213t.757.597q.294.384.365.895h-.838a1.3 1.3 0 0 0-.426-.661q-.327-.291-.881-.291-.49 0-.859.256a1.67 1.67 0 0 0-.572.714q-.202.458-.202 1.076 0 .632.199 1.1.202.47.568.728.37.26.866.26.327 0 .593-.114a1.22 1.22 0 0 0 .714-.838h.838a1.94 1.94 0 0 1-1.086 1.481 2.4 2.4 0 0 1-1.059.223m4.209-7.386v7.273h-.839v-7.273z"/><path id="1500" fill="#ffb3c8" d="M56.288 181.461v13.818h-1.673v-12.064h-.08l-3.374 2.24v-1.7l3.454-2.294zm8.293 14.007q-1.188 0-2.14-.472a4 4 0 0 1-1.524-1.296 3.53 3.53 0 0 1-.628-1.875h1.62q.094.938.85 1.551.762.608 1.822.608.85 0 1.511-.398.668-.399 1.046-1.094a3.24 3.24 0 0 0 .384-1.585q0-.904-.398-1.613a2.9 2.9 0 0 0-1.08-1.126q-.687-.412-1.571-.419a4.3 4.3 0 0 0-1.303.196q-.668.195-1.1.506l-1.565-.189.837-6.801h7.179v1.484h-5.776l-.485 4.076h.08a3.6 3.6 0 0 1 1.067-.56 4 4 0 0 1 1.336-.223q1.268 0 2.26.607.999.6 1.565 1.646.574 1.047.574 2.389 0 1.323-.594 2.361a4.33 4.33 0 0 1-1.62 1.633q-1.032.594-2.347.594m11.748 0q-1.524 0-2.598-.83-1.072-.837-1.64-2.422-.566-1.593-.566-3.846 0-2.24.567-3.826.573-1.592 1.646-2.429 1.08-.843 2.591-.843 1.513 0 2.584.843 1.08.837 1.647 2.429.573 1.586.573 3.826 0 2.253-.567 3.846-.566 1.585-1.64 2.422-1.071.83-2.597.83m0-1.484q1.511 0 2.348-1.458t.837-4.156q0-1.795-.385-3.056-.378-1.263-1.093-1.923a2.41 2.41 0 0 0-1.707-.662q-1.497 0-2.341 1.478-.843 1.471-.844 4.163 0 1.794.378 3.05t1.087 1.909q.715.654 1.72.655m11.875 1.484q-1.524 0-2.598-.83-1.072-.837-1.64-2.422-.566-1.593-.566-3.846 0-2.24.567-3.826.573-1.592 1.646-2.429 1.08-.843 2.591-.843 1.513 0 2.584.843 1.08.837 1.647 2.429.573 1.586.573 3.826 0 2.253-.567 3.846-.566 1.585-1.64 2.422-1.071.83-2.597.83m0-1.484q1.512 0 2.348-1.458.837-1.457.837-4.156 0-1.795-.385-3.056-.378-1.263-1.093-1.923a2.41 2.41 0 0 0-1.707-.662q-1.497 0-2.341 1.478-.843 1.471-.844 4.163 0 1.794.378 3.05t1.087 1.909q.714.654 1.72.655m8.073 1.403q-.499 0-.857-.358a1.17 1.17 0 0 1-.357-.856q0-.5.357-.857.358-.358.857-.358.5 0 .857.358.357.357.358.857 0 .33-.17.607a1.26 1.26 0 0 1-.438.445q-.27.162-.607.162m8.07.081q-1.525 0-2.598-.83-1.073-.837-1.64-2.422-.566-1.593-.566-3.846 0-2.24.566-3.826.575-1.592 1.647-2.429 1.079-.843 2.591-.843 1.511 0 2.584.843 1.08.837 1.646 2.429.573 1.586.574 3.826 0 2.253-.567 3.846-.567 1.585-1.64 2.422-1.073.83-2.597.83m0-1.484q1.51 0 2.348-1.458.836-1.457.836-4.156 0-1.795-.384-3.056-.378-1.263-1.093-1.923a2.42 2.42 0 0 0-1.707-.662q-1.498 0-2.342 1.478-.843 1.471-.843 4.163 0 1.794.378 3.05t1.086 1.909q.715.654 1.721.655"/><path id="kg/s" fill="#d7dae1" d="m114.703 192.371-.015-1.141h.187l2.625-2.672h1.141l-2.797 2.828h-.078zm-.859 2.187v-8h.922v8zm3.812 0-2.343-2.969.656-.64 2.859 3.609zm4.346 2.375q-.668 0-1.148-.172a2.42 2.42 0 0 1-1.305-1.031l.734-.516q.126.165.317.375.191.216.523.371.336.16.879.161.726 0 1.199-.352.473-.351.473-1.101v-1.219h-.078a5 5 0 0 1-.289.406q-.184.238-.532.426-.344.183-.929.183-.727 0-1.305-.343a2.4 2.4 0 0 1-.91-1q-.332-.657-.332-1.594 0-.922.324-1.606.324-.687.902-1.062a2.4 2.4 0 0 1 1.336-.379q.587 0 .93.195.348.192.531.438.188.242.289.398h.094v-.953h.891v6.172q0 .774-.352 1.258a2 2 0 0 1-.937.715q-.587.23-1.305.23m-.031-3.297q.554 0 .937-.254.382-.253.582-.73t.199-1.141a3.1 3.1 0 0 0-.195-1.144 1.7 1.7 0 0 0-.578-.778q-.382-.28-.945-.281-.586 0-.977.297a1.8 1.8 0 0 0-.582.797 3.1 3.1 0 0 0-.191 1.109q0 .625.195 1.106.2.476.586.75.39.269.969.269m7.14-7.453-2.578 9.578h-.844l2.579-9.578zm5.343 3.719-.828.234a1.6 1.6 0 0 0-.23-.402 1.1 1.1 0 0 0-.407-.328q-.258-.129-.66-.129-.55 0-.918.254-.363.25-.363.637 0 .344.25.542.25.2.781.333l.891.218q.804.196 1.199.598.394.399.394 1.027 0 .516-.296.922a1.97 1.97 0 0 1-.821.641q-.527.234-1.226.234-.918 0-1.52-.398-.601-.399-.762-1.164l.875-.219q.126.484.473.726.352.243.918.243.645 0 1.024-.274.382-.277.382-.664a.7.7 0 0 0-.218-.523q-.219-.215-.672-.321l-1-.234q-.825-.195-1.211-.605-.383-.414-.383-1.036 0-.507.285-.898.29-.39.785-.613a2.75 2.75 0 0 1 1.133-.223q.89 0 1.399.391.512.39.726 1.031"/></g><g id="BOX_NQKR3_MONITOR" data-role="cascade-1"><path id="Vector_38" fill="#112617" stroke="#65b75d" d="M149 260.256H36c-2.761 0-5 2.811-5 6.279v51.488c0 3.468 2.239 6.279 5 6.279h113c2.761 0 5-2.811 5-6.279v-51.488c0-3.468-2.239-6.279-5-6.279Z"/><path id="NQKR3_MONITOR" fill="#aaff91" d="M56.648 273.03v7.272h-.853l-3.963-5.71h-.07v5.71h-.881v-7.272h.852l3.977 5.724h.071v-5.724zm4.404 5h.966l.81 1.065.213.284 1.207 1.605h-.966l-.795-1.065-.2-.27zm3.494-1.364q0 1.15-.415 1.989-.416.837-1.14 1.292a3.05 3.05 0 0 1-1.655.455q-.93 0-1.655-.455-.724-.455-1.14-1.292-.415-.839-.415-1.989t.415-1.989q.416-.837 1.14-1.292a3.05 3.05 0 0 1 1.655-.455q.93 0 1.655.455.724.455 1.14 1.292.415.838.415 1.989m-.852 0q0-.945-.316-1.595-.312-.65-.849-.983a2.2 2.2 0 0 0-1.193-.334q-.66 0-1.197.334-.533.333-.848.983-.313.65-.313 1.595t.313 1.594q.315.651.848.984.537.334 1.197.334t1.193-.334q.536-.333.849-.984.316-.65.316-1.594m2.333 3.636v-7.272h.88v3.608h.086l3.267-3.608h1.15l-3.053 3.281 3.054 3.991h-1.066l-2.528-3.38-.91 1.022v2.358zm6.524 0v-7.272h2.457q.852 0 1.4.291.546.288.809.792t.263 1.147q0 .642-.263 1.14a1.86 1.86 0 0 1-.806.781q-.543.28-1.389.28h-1.988v-.795h1.96q.582 0 .937-.17a1.08 1.08 0 0 0 .519-.483q.163-.316.163-.753a1.7 1.7 0 0 0-.163-.764 1.1 1.1 0 0 0-.522-.504q-.36-.181-.948-.181H73.43v6.491zm3.423-3.267 1.79 3.267H76.74l-1.761-3.267zm5.303 3.367q-.704 0-1.254-.242a2.14 2.14 0 0 1-.87-.671 1.8 1.8 0 0 1-.348-1.005h.895q.029.352.241.607.213.252.558.391.345.138.763.139a2 2 0 0 0 .831-.164q.363-.163.569-.454a1.14 1.14 0 0 0 .206-.675q0-.401-.2-.707a1.3 1.3 0 0 0-.582-.483q-.383-.174-.937-.174h-.583v-.781h.583q.433 0 .76-.156.33-.156.515-.441a1.2 1.2 0 0 0 .188-.667 1.23 1.23 0 0 0-.163-.643 1.1 1.1 0 0 0-.462-.426 1.5 1.5 0 0 0-.696-.153q-.377 0-.71.139-.33.135-.54.394-.21.255-.227.618h-.853q.022-.571.345-1.002t.845-.674q.525-.242 1.154-.242.675 0 1.158.274.484.27.742.713.26.444.26.959 0 .615-.324 1.048a1.64 1.64 0 0 1-.87.6v.057q.69.113 1.076.586.387.468.387 1.161 0 .592-.323 1.065a2.2 2.2 0 0 1-.874.739q-.554.27-1.26.27m7.688-.1v.782h-4.546v-.782zm.87-7.272h1.052l2.472 6.037h.085l2.471-6.037h1.051v7.272h-.823v-5.525h-.071l-2.273 5.525h-.796l-2.272-5.525h-.071v5.525h-.824zm15.034 3.636q0 1.15-.416 1.989-.415.837-1.14 1.292t-1.655.455-1.654-.455q-.725-.455-1.14-1.292-.416-.839-.416-1.989t.416-1.989q.415-.837 1.14-1.292a3.05 3.05 0 0 1 1.654-.455q.931 0 1.655.455.725.455 1.14 1.292.416.838.416 1.989m-.853 0q0-.945-.316-1.595-.312-.65-.848-.983a2.2 2.2 0 0 0-1.194-.334q-.66 0-1.196.334-.532.333-.85.983-.311.65-.312 1.595 0 .945.313 1.594.316.651.849.984.536.334 1.196.334a2.2 2.2 0 0 0 1.194-.334q.536-.333.848-.984.316-.65.316-1.594m8.1-3.636v7.272h-.852l-3.963-5.71h-.071v5.71h-.881v-7.272h.853l3.977 5.724h.071v-5.724zm2.643 0v7.272h-.88v-7.272zm1.368.781v-.781h5.455v.781h-2.287v6.491h-.881v-6.491zm12.648 2.855q0 1.15-.416 1.989-.415.837-1.14 1.292t-1.654.455q-.931 0-1.655-.455-.725-.455-1.14-1.292-.416-.839-.416-1.989t.416-1.989q.415-.837 1.14-1.292t1.655-.455 1.654.455q.725.455 1.14 1.292.416.838.416 1.989m-.852 0q0-.945-.316-1.595-.314-.65-.849-.983a2.2 2.2 0 0 0-1.193-.334q-.662 0-1.197.334-.533.333-.849.983-.312.65-.312 1.595t.312 1.594q.316.651.849.984.535.334 1.197.334.66 0 1.193-.334.535-.333.849-.984.315-.65.316-1.594m2.333 3.636v-7.272h2.457q.852 0 1.399.291.548.288.81.792.263.504.263 1.147 0 .642-.263 1.14a1.86 1.86 0 0 1-.806.781q-.543.28-1.389.28h-1.988v-.795h1.96q.583 0 .937-.17.359-.171.519-.483.163-.316.163-.753t-.163-.764a1.1 1.1 0 0 0-.522-.504q-.359-.181-.948-.181h-1.549v6.491zm3.423-3.267 1.79 3.267h-1.023l-1.761-3.267z"/><path id="200" fill="#ccff9a" d="M55.506 305.628v-1.279l4.8-5.255a34 34 0 0 0 1.393-1.605q.546-.69.81-1.293.27-.61.27-1.278 0-.767-.37-1.328a2.4 2.4 0 0 0-.994-.867 3.2 3.2 0 0 0-1.42-.305q-.84 0-1.464.348a2.4 2.4 0 0 0-.959.958q-.333.618-.333 1.449h-1.676q0-1.278.589-2.244a4.1 4.1 0 0 1 1.605-1.506q1.023-.539 2.294-.539 1.279 0 2.266.539.987.54 1.548 1.456a3.83 3.83 0 0 1 .561 2.039q0 .803-.291 1.569-.284.76-.994 1.698-.704.93-1.953 2.272l-3.268 3.495v.113h6.762v1.563zm16.853.199q-1.605 0-2.734-.874-1.13-.88-1.726-2.55-.596-1.675-.596-4.048 0-2.358.596-4.027.604-1.676 1.733-2.557 1.137-.887 2.727-.887 1.592 0 2.72.887 1.137.881 1.734 2.557.603 1.67.603 4.027 0 2.373-.596 4.048-.597 1.67-1.726 2.55-1.129.874-2.735.874m0-1.563q1.592 0 2.472-1.534t.88-4.375q0-1.889-.404-3.217-.398-1.329-1.15-2.024-.747-.696-1.798-.696-1.575 0-2.464 1.555-.888 1.548-.888 4.382 0 1.89.398 3.21t1.143 2.01q.753.69 1.811.689m12.5 1.563q-1.605 0-2.734-.874-1.13-.88-1.726-2.55-.596-1.675-.596-4.048 0-2.358.596-4.027.604-1.676 1.733-2.557 1.137-.887 2.727-.887 1.592 0 2.72.887 1.137.881 1.734 2.557.603 1.67.603 4.027 0 2.373-.596 4.048-.597 1.67-1.726 2.55-1.129.874-2.735.874m0-1.563q1.592 0 2.472-1.534t.88-4.375q0-1.889-.404-3.217-.398-1.329-1.15-2.024-.747-.696-1.798-.696-1.575 0-2.464 1.555-.888 1.548-.888 4.382 0 1.89.398 3.21t1.143 2.01q.753.69 1.811.689m8.498 1.478a1.23 1.23 0 0 1-.902-.377 1.23 1.23 0 0 1-.376-.902q0-.525.376-.902a1.23 1.23 0 0 1 .902-.376q.525 0 .902.376.377.377.377.902 0 .348-.178.639a1.3 1.3 0 0 1-.462.469q-.284.171-.639.171m8.495.085q-1.606 0-2.735-.874-1.13-.88-1.726-2.55-.596-1.675-.596-4.048 0-2.358.596-4.027.604-1.676 1.733-2.557 1.137-.887 2.728-.887 1.59 0 2.72.887 1.136.881 1.733 2.557.603 1.67.603 4.027 0 2.373-.596 4.048-.597 1.67-1.726 2.55-1.13.874-2.734.874m0-1.563q1.59 0 2.471-1.534.88-1.534.881-4.375 0-1.889-.405-3.217-.398-1.329-1.151-2.024a2.54 2.54 0 0 0-1.796-.696q-1.578 0-2.465 1.555-.888 1.548-.888 4.382 0 1.89.398 3.21.397 1.321 1.143 2.01.753.69 1.812.689"/><path id="raw" fill="#dce9d4" d="M111.844 305.163v-6h.89v.906h.063q.163-.445.594-.723t.968-.277a9 9 0 0 1 .485.016v.937a3 3 0 0 0-.215-.035 2 2 0 0 0-.348-.027q-.437 0-.781.183-.34.18-.539.5a1.35 1.35 0 0 0-.195.723v3.797zm5.858.14q-.57 0-1.035-.214a1.8 1.8 0 0 1-.738-.629q-.274-.415-.274-1 0-.516.203-.836a1.44 1.44 0 0 1 .543-.508q.34-.183.75-.274.414-.094.832-.148.548-.07.887-.105.344-.039.5-.129.16-.09.16-.313v-.031q0-.579-.316-.899-.312-.32-.949-.32-.66 0-1.036.289-.374.29-.527.617l-.875-.312q.234-.548.625-.852.395-.308.86-.429a3.5 3.5 0 0 1 .921-.125q.29 0 .664.07.38.067.731.277.356.211.59.637t.234 1.141v3.953h-.922v-.813h-.047a1.6 1.6 0 0 1-.312.418q-.219.223-.582.379t-.887.156m.141-.828q.547 0 .922-.215a1.47 1.47 0 0 0 .57-.554q.195-.34.195-.715v-.844q-.058.07-.258.129-.195.055-.453.098a21 21 0 0 1-.882.117q-.36.047-.672.152a1.16 1.16 0 0 0-.5.309q-.188.202-.188.555 0 .48.356.726.359.243.91.242m5.651.688-1.828-6h.969l1.297 4.594h.062l1.281-4.594h.985l1.265 4.578h.063l1.297-4.578h.969l-1.829 6h-.906l-1.312-4.61h-.094l-1.313 4.61z"/></g><path id="&amp;#237;&amp;#149;&amp;#169;&amp;#236;&amp;#132;&amp;#177;&amp;#234;&amp;#176;&amp;#128;&amp;#236;&amp;#138;&amp;#164; &amp;#234;&amp;#179;&amp;#132;&amp;#237;&amp;#134;&amp;#181;" fill="#a9b7c5" d="M31.69 133.73h.83v5.26h-.83zm.47 2.31h1.69v.7h-1.69zm-5.33 3.35h.82v.95h4.04v-.95h.83v3.27h-5.69zm.82 1.6v1h4.04v-1zm-2.13-6.33h5.34v.67h-5.34zm2.67 1.09q.65 0 1.13.2.49.19.76.55.27.35.27.83t-.27.84-.76.56q-.48.19-1.13.19t-1.14-.19a1.8 1.8 0 0 1-.76-.56q-.27-.36-.27-.84t.27-.83q.28-.36.76-.55.49-.2 1.14-.2m0 .63q-.62 0-1 .26a.8.8 0 0 0-.37.69q0 .44.37.7.38.26 1 .26.61 0 .99-.26a.81.81 0 0 0 .38-.7q0-.43-.38-.69-.37-.26-.99-.26m-.41-2.73h.83v1.37h-.83zm9.2.59h.69v.93q0 .88-.32 1.62-.31.74-.88 1.3-.56.55-1.34.84l-.44-.67q.7-.25 1.21-.71a3.3 3.3 0 0 0 .79-1.07q.29-.62.29-1.31zm.15 0h.67v.9q0 .64.28 1.21t.77 1.01q.5.43 1.16.65l-.45.65a3.9 3.9 0 0 1-1.28-.79 3.5 3.5 0 0 1-.85-1.21q-.3-.7-.3-1.52zm4.18-.51h.83v5.35h-.83zm-2.15 5.62q1.4 0 2.2.45.81.45.81 1.26 0 .8-.81 1.25-.8.45-2.2.45t-2.21-.45q-.8-.45-.8-1.25 0-.81.8-1.26.81-.45 2.21-.45m0 .66q-.681 0-1.17.13-.49.12-.76.36a.72.72 0 0 0-.26.56q0 .32.26.56.27.23.76.36.489.12 1.17.12.69 0 1.17-.12.489-.13.75-.36a.73.73 0 0 0 .27-.56.71.71 0 0 0-.27-.56q-.261-.24-.75-.36a4.5 4.5 0 0 0-1.17-.13m.18-4.37h2.14v.69h-2.14zm10.678-1.91h.83v9.04h-.83zm.61 3.67h1.66v.69h-1.66zm-2.92-2.7h.81q0 1.29-.42 2.47-.42 1.17-1.32 2.17-.9.99-2.37 1.72l-.46-.64q1.26-.63 2.09-1.47a5.6 5.6 0 0 0 1.25-1.88q.42-1.04.42-2.24zm-3.34 0h3.76v.69h-3.76zm12.35-.35h.73v.7q0 .59-.21 1.12-.2.53-.56.99-.35.45-.82.81-.46.36-.99.61-.52.25-1.06.38l-.37-.69q.47-.1.94-.31.48-.21.9-.51a4.3 4.3 0 0 0 .74-.69q.33-.38.51-.81.19-.44.19-.9zm.16 0h.71v.7q0 .46.19.9.189.43.51.81.33.38.75.69.42.3.89.52.48.21.96.3l-.38.69a5.3 5.3 0 0 1-1.06-.38 5.7 5.7 0 0 1-.99-.61q-.46-.36-.82-.81a3.8 3.8 0 0 1-.56-.99 3.1 3.1 0 0 1-.2-1.12zm-3.78 6.52h8.2v.69h-8.2zm15.521-4.63h2v.68h-2zm-.07 2.27h2.05v.68h-2.05zm3.45-4.78h.8v9.05H72zm-1.82.24h.79v8.35h-.79zm-2.01.91h.8a7.6 7.6 0 0 1-.34 2.27 6.2 6.2 0 0 1-1.09 2.02q-.74.93-1.95 1.66l-.49-.6q1.06-.64 1.74-1.44a5.4 5.4 0 0 0 1-1.75q.33-.95.33-2.01zm-2.67 0h2.99v.68H65.5zm8.8 3.64h8.18v.67h-8.18zm3.67-1.17h.83v1.45h-.83zm-2.59-.36h6.14v.65h-6.14zm0-3h6.09v.66h-5.26v2.69h-.83zm.58 1.49h5.27v.63h-5.27zm2.43 4.38q1.47 0 2.28.37t.81 1.08-.81 1.08-2.28.37q-1.48 0-2.29-.37t-.81-1.08.81-1.08 2.29-.37m-.01.63q-1.08 0-1.67.21t-.59.61q0 .41.59.62.59.2 1.67.2 1.1 0 1.68-.2.59-.21.59-.62 0-.4-.59-.61-.58-.21-1.68-.21"/><path id="&amp;#236;&amp;#167;&amp;#136;&amp;#236;&amp;#134;&amp;#140; &amp;#234;&amp;#179;&amp;#132;&amp;#237;&amp;#134;&amp;#181;" fill="#a9b7c5" d="M32.08 244.335h.83v4.69h-.83zm-5.02 5.13h5.85v2.17h-5.02v1.28h-.8v-1.89h5v-.91h-5.03zm.03 3.16h6.13v.66h-6.13zm.82-7.49h.68v.48q0 .79-.33 1.48-.32.68-.9 1.19a4 4 0 0 1-1.35.76l-.39-.66q.51-.16.93-.44t.72-.65q.31-.37.47-.79.17-.43.17-.89zm.17 0h.67v.48q0 .429.16.84.17.4.48.74t.73.6.92.41l-.4.65a4 4 0 0 1-1.34-.71q-.57-.48-.9-1.12a3.15 3.15 0 0 1-.32-1.41zm-2.24-.29h4.95v.68h-4.95zm8.86 6.67h8.2v.7h-8.2zm3.65-2.19h.82v2.42h-.82zm-.03-4.39h.73v.7q0 .59-.21 1.11-.2.51-.56.96-.36.44-.83.79a5.1 5.1 0 0 1-2.07.94l-.36-.69q.48-.08.95-.28.48-.21.9-.5.42-.3.75-.66.33-.37.51-.79.19-.43.19-.88zm.15 0h.72v.7q0 .46.19.88t.52.79q.33.36.75.66.429.3.9.5.48.2.96.28l-.36.69a5 5 0 0 1-1.08-.35 5.4 5.4 0 0 1-1-.59 4.7 4.7 0 0 1-.83-.79q-.36-.45-.57-.97a3 3 0 0 1-.2-1.1zm11.75 1.91h2v.68h-2zm-.07 2.27h2.05v.68h-2.05zm3.45-4.78h.8v9.05h-.8zm-1.82.24h.79v8.35h-.79zm-2.01.91h.8q.001 1.18-.34 2.27a6.2 6.2 0 0 1-1.09 2.02q-.738.93-1.95 1.66l-.49-.6q1.062-.64 1.74-1.44a5.4 5.4 0 0 0 1-1.75q.33-.951.33-2.01zm-2.67 0h2.99v.68H47.1zm8.8 3.64h8.18v.67H55.9zm3.67-1.17h.83v1.45h-.83zm-2.59-.36h6.14v.65h-6.14zm0-3h6.09v.66h-5.26v2.69h-.83zm.58 1.49h5.27v.63h-5.27zm2.43 4.38q1.47 0 2.28.37.81.369.81 1.08 0 .71-.81 1.08t-2.28.37q-1.48 0-2.29-.37t-.81-1.08q0-.711.81-1.08t2.29-.37m-.01.63q-1.08 0-1.67.21t-.59.61q0 .41.59.62.59.2 1.67.2 1.101 0 1.68-.2.59-.21.59-.62 0-.4-.59-.61-.579-.21-1.68-.21"/><path id="&amp;#234;&amp;#179;&amp;#181;&amp;#234;&amp;#184;&amp;#176; &amp;#234;&amp;#179;&amp;#132;&amp;#237;&amp;#134;&amp;#181;" fill="#a9b7c5" d="M50.55 402.556q.97 0 1.67.2.71.201 1.09.57.39.37.39.9 0 .51-.39.89-.38.37-1.09.56-.7.2-1.67.2-.96 0-1.67-.2-.71-.19-1.09-.56a1.22 1.22 0 0 1-.38-.89q0-.53.38-.9.38-.369 1.09-.57t1.67-.2m0 .64q-.71 0-1.23.13-.52.12-.81.35-.28.23-.28.55 0 .3.28.53.29.23.81.35t1.23.12q.72 0 1.24-.12t.8-.35q.29-.23.29-.53 0-.32-.29-.55-.28-.23-.8-.35a5.2 5.2 0 0 0-1.24-.13m-3.08-5.89h5.82v.67h-5.82zm-.96 3.75h8.15v.68h-8.15zm3.35-1.74h.82v1.94h-.82zm2.95-2.01h.82v.76q0 .55-.03 1.13-.03.57-.22 1.27l-.81-.09q.18-.7.21-1.24t.03-1.07zm9.48-.46h.83v9.05h-.83zm-2.65.98h.82q0 .981-.24 1.89a6.2 6.2 0 0 1-.73 1.73 6.7 6.7 0 0 1-1.3 1.51q-.8.7-1.94 1.25l-.44-.67q1.31-.63 2.16-1.47a5.45 5.45 0 0 0 1.26-1.87 6 6 0 0 0 .41-2.24zm-3.41 0h3.76v.67h-3.76zm14.99 1.53h2v.68h-2zm-.07 2.27h2.05v.68h-2.05zm3.45-4.78h.8v9.05h-.8zm-1.82.24h.79v8.35h-.79zm-2.01.91h.8q.001 1.18-.34 2.27a6.2 6.2 0 0 1-1.09 2.02q-.738.93-1.95 1.66l-.49-.6q1.062-.639 1.74-1.44a5.4 5.4 0 0 0 1-1.75q.33-.95.33-2.01zm-2.67 0h2.99v.68H68.1zm8.8 3.64h8.18v.67H76.9zm3.67-1.17h.83v1.45h-.83zm-2.59-.36h6.14v.65h-6.14zm0-3h6.09v.66h-5.26v2.69h-.83zm.58 1.49h5.27v.63h-5.27zm2.43 4.38q1.47 0 2.28.37t.81 1.08q0 .711-.81 1.08t-2.28.37q-1.48 0-2.29-.37-.81-.369-.81-1.08 0-.71.81-1.08t2.29-.37m-.01.63q-1.08 0-1.67.21t-.59.61q0 .41.59.62.59.2 1.67.2 1.1 0 1.68-.2.59-.21.59-.62 0-.4-.59-.61-.58-.21-1.68-.21"/><g id="BOX_FSAGR"><path id="Vector_39" fill="#161424" stroke="#d95378" d="M290 119.605h-59c-1.657 0-3 1.645-3 3.675v42.882c0 2.03 1.343 3.675 3 3.675h59c1.657 0 3-1.645 3-3.675V123.28c0-2.03-1.343-3.675-3-3.675Z"/><path id="FSAGR" fill="#ff9aac" d="M244.881 134.505v-7.272h4.36v.781h-3.48v2.457h3.154v.782h-3.154v3.252zm9.846-5.454a1.12 1.12 0 0 0-.518-.838q-.455-.299-1.115-.299-.483 0-.846.157a1.35 1.35 0 0 0-.561.429q-.199.274-.199.622 0 .291.139.501.142.206.362.344.22.135.462.224.242.085.444.138l.738.199q.285.075.632.206.353.131.672.359.323.224.532.575t.21.863q0 .59-.309 1.065-.306.477-.895.757-.586.28-1.424.28-.781 0-1.353-.252a2.15 2.15 0 0 1-.895-.703 2 2 0 0 1-.366-1.048h.909q.036.412.277.682.246.267.618.398.377.128.81.128.504 0 .905-.164.402-.167.636-.461.235-.299.235-.696a.85.85 0 0 0-.203-.59 1.5 1.5 0 0 0-.533-.369 6 6 0 0 0-.713-.249l-.895-.255q-.852-.246-1.35-.7-.497-.454-.497-1.19 0-.61.33-1.065a2.2 2.2 0 0 1 .895-.71 3 3 0 0 1 1.261-.256q.703 0 1.25.252.547.249.866.682.324.433.341.984zm2.698 5.454h-.923l2.67-7.272h.909l2.671 7.272h-.924l-2.173-6.122h-.057zm.341-2.841h3.722v.782h-3.722zm10.748-2.159a2.6 2.6 0 0 0-.309-.642 1.96 1.96 0 0 0-1.04-.799 2.4 2.4 0 0 0-.724-.107q-.647 0-1.176.334-.529.333-.842.984-.312.65-.312 1.594t.316 1.594q.316.651.856.984.54.334 1.214.334a2.2 2.2 0 0 0 1.101-.266q.48-.27.746-.76.27-.493.27-1.162l.27.057h-2.188v-.781h2.77v.781q0 .899-.383 1.563a2.66 2.66 0 0 1-1.052 1.03q-.667.362-1.534.362-.966 0-1.697-.455a3.07 3.07 0 0 1-1.136-1.292q-.405-.839-.405-1.989 0-.863.231-1.552.234-.692.66-1.179a2.9 2.9 0 0 1 1.009-.746 3.1 3.1 0 0 1 1.282-.259q.575 0 1.072.174.501.17.891.487.395.312.657.749.263.434.362.962zm2.46 5v-7.272h2.458q.852 0 1.399.291.547.288.81.792.262.504.262 1.147 0 .642-.262 1.14a1.86 1.86 0 0 1-.806.781q-.545.28-1.389.28h-1.989v-.795h1.961q.582 0 .937-.17.358-.171.519-.483.163-.317.163-.753 0-.437-.163-.764a1.1 1.1 0 0 0-.522-.504q-.36-.181-.949-.181h-1.548v6.491zm3.424-3.267 1.79 3.267h-1.023l-1.762-3.267z"/><path id="76" fill="#ffa3b9" d="m240.568 155 5.205-10.295v-.091h-6v-1.25h7.454v1.318L242.045 155zm12.391.159a4.3 4.3 0 0 1-1.432-.273 3.4 3.4 0 0 1-1.307-.88q-.59-.625-.949-1.688-.358-1.068-.358-2.682 0-1.545.29-2.738.29-1.2.841-2.017.551-.825 1.33-1.25.783-.426 1.767-.426.977 0 1.738.392.767.386 1.25 1.079t.625 1.597h-1.386a2.57 2.57 0 0 0-.75-1.301q-.557-.517-1.477-.517-1.353 0-2.131 1.176-.773 1.176-.778 3.301h.09a3.43 3.43 0 0 1 1.733-1.358 3.4 3.4 0 0 1 1.131-.188 3.5 3.5 0 0 1 1.83.5q.83.495 1.329 1.37.5.869.5 1.994 0 1.08-.483 1.977a3.7 3.7 0 0 1-1.358 1.421q-.869.523-2.045.511m0-1.25q.715 0 1.284-.358.574-.358.903-.96.336-.603.336-1.341a2.7 2.7 0 0 0-.324-1.312 2.46 2.46 0 0 0-.881-.949 2.33 2.33 0 0 0-1.273-.353q-.54 0-1.005.216-.467.21-.819.58a2.8 2.8 0 0 0-.545.846 2.69 2.69 0 0 0 1.023 3.262q.573.369 1.301.369m6.574 1.182a.98.98 0 0 1-.722-.301.99.99 0 0 1-.301-.722q0-.42.301-.721a.98.98 0 0 1 .722-.302q.42 0 .721.302.301.3.301.721a.96.96 0 0 1-.142.512q-.137.232-.369.375a1 1 0 0 1-.511.136m6.795.068q-1.284 0-2.187-.699-.904-.703-1.381-2.04-.477-1.34-.477-3.238 0-1.887.477-3.222.483-1.341 1.386-2.045.91-.71 2.182-.71 1.273 0 2.176.71.909.704 1.387 2.045.483 1.335.483 3.222 0 1.898-.478 3.238-.477 1.336-1.38 2.04-.904.699-2.188.699m0-1.25q1.274 0 1.977-1.227.705-1.227.705-3.5 0-1.512-.324-2.574-.318-1.062-.92-1.619a2.03 2.03 0 0 0-1.438-.557q-1.261 0-1.971 1.244-.711 1.238-.711 3.506 0 1.51.318 2.568.32 1.058.915 1.608.603.55 1.449.551"/><path id="%" fill="#e5dce1" d="M277.568 154.26v-.307q0-.318.131-.582a1.05 1.05 0 0 1 .386-.426q.256-.162.62-.162.369 0 .619.162.25.159.378.426.128.264.128.582v.307q0 .318-.131.585a1.02 1.02 0 0 1-.381.427 1.1 1.1 0 0 1-.613.159q-.37 0-.623-.159a1.05 1.05 0 0 1-.383-.427 1.3 1.3 0 0 1-.131-.585m.58-.307v.307q0 .264.125.475.125.207.432.207.298 0 .42-.207a.9.9 0 0 0 .125-.475v-.307a.93.93 0 0 0-.119-.471q-.12-.21-.426-.21-.299 0-.429.21a.87.87 0 0 0-.128.471m-3.478-3.022v-.307q0-.318.131-.583.133-.267.387-.426a1.13 1.13 0 0 1 .619-.162q.369 0 .619.162.25.159.378.426.128.265.128.583v.307q0 .318-.131.585a1.03 1.03 0 0 1-.381.426 1.1 1.1 0 0 1-.613.159q-.37 0-.622-.159a1.05 1.05 0 0 1-.384-.426 1.3 1.3 0 0 1-.131-.585m.58-.307v.307q0 .264.125.474.125.207.432.207.298 0 .42-.207a.9.9 0 0 0 .125-.474v-.307a.94.94 0 0 0-.119-.472q-.12-.21-.426-.21-.298 0-.429.21a.9.9 0 0 0-.128.472m-.364 4.727 4-5.818h.648l-4 5.818z"/></g><g id="BOX_FSAG11"><path id="Vector_40" fill="#171424" stroke="#d95378" d="M548 81.93h-67c-1.657 0-3 1.687-3 3.768v57.767c0 2.081 1.343 3.768 3 3.768h67c1.657 0 3-1.687 3-3.768V85.698c0-2.081-1.343-3.768-3-3.768Z"/><path id="FSAG11" fill="#ff9aac" d="M497.881 98.21v-7.273h4.36v.78h-3.48v2.458h3.154v.782h-3.154v3.252zm9.846-5.455a1.12 1.12 0 0 0-.518-.838q-.455-.3-1.115-.299-.483 0-.846.157a1.35 1.35 0 0 0-.561.43q-.199.273-.199.62a.9.9 0 0 0 .139.501q.142.207.362.345.22.134.462.224.242.085.444.138l.738.199q.285.075.632.206.353.132.672.359.323.223.532.575.21.351.21.863 0 .59-.309 1.065-.306.476-.895.757-.586.28-1.424.28-.781 0-1.353-.252a2.16 2.16 0 0 1-.895-.703q-.322-.45-.366-1.048h.909q.036.412.277.682.246.267.618.398.377.128.81.128.504 0 .905-.164a1.55 1.55 0 0 0 .636-.461q.235-.3.235-.696a.85.85 0 0 0-.203-.59 1.5 1.5 0 0 0-.533-.37 6 6 0 0 0-.713-.248l-.895-.255q-.852-.246-1.35-.7-.497-.455-.497-1.19 0-.61.33-1.065.334-.458.895-.71.565-.255 1.261-.256.703 0 1.25.252.547.249.866.682.324.433.341.984zm2.698 5.454h-.923l2.67-7.272h.909l2.671 7.272h-.924l-2.173-6.122h-.057zm.341-2.84h3.722v.78h-3.722zm10.748-2.16a2.6 2.6 0 0 0-.309-.642 1.96 1.96 0 0 0-1.04-.8 2.4 2.4 0 0 0-.724-.106 2.16 2.16 0 0 0-1.176.334q-.529.333-.842.983t-.312 1.595q0 .945.316 1.594t.856.984 1.214.334q.625 0 1.101-.266.48-.27.746-.76.27-.495.27-1.162l.27.057h-2.188v-.781h2.77v.781q0 .9-.383 1.563a2.65 2.65 0 0 1-1.052 1.03q-.667.362-1.534.362-.965 0-1.697-.455a3.06 3.06 0 0 1-1.136-1.292q-.405-.839-.405-1.99 0-.862.231-1.55.234-.694.66-1.18t1.009-.746q.582-.258 1.282-.259.575 0 1.072.174a2.87 2.87 0 0 1 1.548 1.236q.263.434.362.962zm4.889-2.272v7.272h-.88v-6.35h-.043l-1.775 1.18v-.895l1.818-1.207zm4.649 0v7.272h-.881v-6.35h-.042l-1.776 1.18v-.895l1.818-1.207z"/><path id="45" fill="#ffa3b9" d="M493.932 117.149v-1.16l5.113-8.09h.841v1.795h-.568l-3.863 6.114v.091h6.886v1.25zm5.477 2.386v-11.636h1.341v11.636zm8.698.159q-1 0-1.802-.398a3.35 3.35 0 0 1-1.284-1.091 2.97 2.97 0 0 1-.528-1.579h1.364q.08.79.715 1.307.642.511 1.535.511a2.4 2.4 0 0 0 1.272-.335q.563-.336.881-.921a2.73 2.73 0 0 0 .324-1.335q0-.762-.335-1.358a2.46 2.46 0 0 0-.91-.949 2.57 2.57 0 0 0-1.323-.352 3.6 3.6 0 0 0-1.097.165q-.563.165-.926.426l-1.318-.159.704-5.727h6.046v1.25h-4.864l-.409 3.431h.068q.358-.283.898-.471t1.125-.188q1.068 0 1.903.512.841.506 1.318 1.386.483.881.483 2.011 0 1.115-.5 1.989a3.65 3.65 0 0 1-1.363 1.375q-.87.5-1.977.5m6.66-.068a1 1 0 0 1-.722-.301 1 1 0 0 1-.301-.722q0-.42.301-.722a1 1 0 0 1 .722-.301q.42 0 .722.301.3.302.301.722a.97.97 0 0 1-.142.511 1.05 1.05 0 0 1-.37.375.97.97 0 0 1-.511.137m6.795.068q-1.284 0-2.187-.699-.903-.705-1.381-2.04-.477-1.34-.477-3.238 0-1.887.477-3.222.483-1.341 1.387-2.045.909-.711 2.181-.711t2.177.711q.909.704 1.386 2.045.483 1.335.483 3.222 0 1.897-.477 3.238-.478 1.335-1.381 2.04-.903.699-2.188.699m0-1.25q1.273 0 1.978-1.227.704-1.227.704-3.5 0-1.512-.324-2.574-.318-1.062-.92-1.619a2.03 2.03 0 0 0-1.438-.557q-1.26 0-1.971 1.244-.71 1.239-.71 3.506 0 1.51.318 2.568.318 1.056.915 1.608a2.07 2.07 0 0 0 1.448.551"/><path id="%_2" fill="#e5dce1" d="M532.568 118.979v-.307q0-.318.131-.582a1.05 1.05 0 0 1 .386-.426q.256-.162.62-.162.369 0 .619.162.25.159.378.426.128.264.128.582v.307q0 .318-.131.585a1.03 1.03 0 0 1-.381.426 1.1 1.1 0 0 1-.613.159q-.37 0-.623-.159a1.06 1.06 0 0 1-.383-.426 1.3 1.3 0 0 1-.131-.585m.58-.307v.307q0 .264.125.474.125.208.432.208.298 0 .42-.208a.9.9 0 0 0 .125-.474v-.307a.94.94 0 0 0-.119-.472q-.12-.21-.426-.21-.298 0-.429.21a.9.9 0 0 0-.128.472m-3.478-3.023v-.307q0-.318.131-.582.134-.267.387-.426a1.13 1.13 0 0 1 .619-.162q.369 0 .619.162.25.159.378.426.128.264.128.582v.307q0 .319-.131.586a1.03 1.03 0 0 1-.381.426 1.1 1.1 0 0 1-.613.159q-.37 0-.622-.159a1.05 1.05 0 0 1-.384-.426 1.3 1.3 0 0 1-.131-.586m.58-.307v.307q0 .264.125.475.124.207.432.207.299 0 .42-.207a.9.9 0 0 0 .125-.475v-.307a.93.93 0 0 0-.119-.471q-.12-.21-.426-.21-.299 0-.429.21a.9.9 0 0 0-.128.471m-.364 4.728 4-5.818h.648l-4 5.818z"/><path id="Vector_41" fill="#c7c2ca" d="M529 134.674h-29v3.768h29z" opacity=".45"/></g><g id="BOX_FSAG11A"><path id="Vector_42" fill="#171424" stroke="#d95378" d="M664 81.93h-67c-1.657 0-3 1.687-3 3.768v57.767c0 2.081 1.343 3.768 3 3.768h67c1.657 0 3-1.687 3-3.768V85.698c0-2.081-1.343-3.768-3-3.768Z"/><path id="FSAG11A" fill="#ff9aac" d="M609.881 98.21v-7.273h4.36v.78h-3.48v2.458h3.154v.782h-3.154v3.252zm9.846-5.455a1.12 1.12 0 0 0-.518-.838q-.455-.3-1.115-.299-.483 0-.846.157a1.35 1.35 0 0 0-.561.43q-.198.273-.199.62a.9.9 0 0 0 .139.501q.142.207.362.345.22.134.462.224.241.085.444.138l.738.199q.285.075.632.206.352.132.672.359.323.223.532.575.21.351.21.863 0 .59-.309 1.065-.306.476-.895.757-.586.28-1.424.28-.781 0-1.353-.252a2.16 2.16 0 0 1-.895-.703q-.322-.45-.366-1.048h.909q.036.412.277.682.246.267.618.398.376.128.81.128.504 0 .905-.164a1.55 1.55 0 0 0 .636-.461q.234-.3.235-.696a.85.85 0 0 0-.203-.59 1.5 1.5 0 0 0-.533-.37 6 6 0 0 0-.713-.248l-.895-.255q-.852-.246-1.35-.7-.497-.455-.497-1.19 0-.61.33-1.065.334-.458.895-.71.565-.255 1.261-.256.703 0 1.25.252.547.249.866.682.324.433.341.984zm2.698 5.454h-.923l2.67-7.272h.909l2.671 7.272h-.924l-2.173-6.122h-.057zm.341-2.84h3.722v.78h-3.722zm10.748-2.16a2.6 2.6 0 0 0-.309-.642 1.96 1.96 0 0 0-1.04-.8 2.4 2.4 0 0 0-.724-.106 2.16 2.16 0 0 0-1.176.334q-.529.333-.842.983t-.312 1.595q0 .945.316 1.594t.856.984 1.214.334q.625 0 1.101-.266.48-.27.746-.76.27-.495.27-1.162l.27.057h-2.188v-.781h2.77v.781q0 .9-.383 1.563a2.65 2.65 0 0 1-1.052 1.03q-.667.362-1.534.362-.965 0-1.697-.455a3.06 3.06 0 0 1-1.136-1.292q-.405-.839-.405-1.99 0-.862.231-1.55.234-.694.66-1.18t1.009-.746q.582-.258 1.282-.259.575 0 1.072.174a2.87 2.87 0 0 1 1.548 1.236q.263.434.362.962zm4.889-2.272v7.272h-.88v-6.35h-.043l-1.775 1.18v-.895l1.818-1.207zm4.649 0v7.272h-.881v-6.35h-.042l-1.776 1.18v-.895l1.818-1.207zm2.518 7.272h-.924l2.671-7.272h.909l2.67 7.272h-.923l-2.173-6.122h-.057zm.341-2.84h3.721v.78h-3.721z"/><path id="45.9" fill="#ffa3b9" d="M609.932 117.149v-1.16l5.113-8.09h.841v1.795h-.568l-3.863 6.114v.091h6.886v1.25zm5.477 2.386v-11.636h1.341v11.636zm8.698.159q-1 0-1.802-.398a3.35 3.35 0 0 1-1.284-1.091 2.97 2.97 0 0 1-.528-1.579h1.364q.08.79.715 1.307.642.511 1.535.511a2.4 2.4 0 0 0 1.272-.335q.563-.336.881-.921a2.73 2.73 0 0 0 .324-1.335q0-.762-.335-1.358a2.46 2.46 0 0 0-.91-.949 2.57 2.57 0 0 0-1.323-.352 3.6 3.6 0 0 0-1.097.165q-.563.165-.926.426l-1.318-.159.704-5.727h6.046v1.25h-4.864l-.409 3.431h.068q.358-.283.898-.471t1.125-.188q1.068 0 1.903.512.841.506 1.318 1.386.483.881.483 2.011 0 1.115-.5 1.989a3.65 3.65 0 0 1-1.363 1.375q-.87.5-1.977.5m6.66-.068a1 1 0 0 1-.722-.301 1 1 0 0 1-.301-.722q0-.42.301-.722a1 1 0 0 1 .722-.301q.42 0 .722.301.3.302.301.722a.97.97 0 0 1-.142.511 1.05 1.05 0 0 1-.37.375.97.97 0 0 1-.511.137m7.001-11.887q.717.006 1.432.273.716.267 1.307.887.59.613.949 1.676.358 1.062.358 2.664 0 1.552-.296 2.756-.29 1.199-.84 2.023-.546.824-1.33 1.25-.779.426-1.761.426-.977 0-1.745-.386a3.4 3.4 0 0 1-1.25-1.086 3.8 3.8 0 0 1-.619-1.619h1.386q.187.8.745 1.324.562.517 1.483.517 1.346 0 2.125-1.176.784-1.176.784-3.324h-.091a3.6 3.6 0 0 1-.756.824 3.33 3.33 0 0 1-2.108.721 3.53 3.53 0 0 1-1.835-.494 3.76 3.76 0 0 1-1.33-1.369q-.494-.876-.494-2 0-1.068.477-1.955a3.7 3.7 0 0 1 1.353-1.42q.875-.528 2.056-.512m0 1.25q-.716 0-1.289.358-.568.352-.904.955a2.7 2.7 0 0 0-.329 1.324q0 .727.318 1.324.324.59.881.943.563.346 1.278.346.54 0 1.006-.21.465-.216.812-.585.353-.375.551-.847a2.608 2.608 0 0 0-.13-2.272 2.6 2.6 0 0 0-.898-.966 2.33 2.33 0 0 0-1.296-.37"/><path id="%_3" fill="#e5dce1" d="M648.568 118.979v-.307q0-.318.131-.582a1.05 1.05 0 0 1 .386-.426q.256-.162.62-.162.369 0 .619.162.25.159.378.426.128.264.128.582v.307q0 .318-.131.585a1.03 1.03 0 0 1-.381.426 1.1 1.1 0 0 1-.613.159q-.37 0-.623-.159a1.06 1.06 0 0 1-.383-.426 1.3 1.3 0 0 1-.131-.585m.58-.307v.307q0 .264.125.474.125.208.432.208.298 0 .42-.208a.9.9 0 0 0 .125-.474v-.307a.94.94 0 0 0-.119-.472q-.12-.21-.426-.21-.298 0-.429.21a.9.9 0 0 0-.128.472m-3.478-3.023v-.307q0-.318.131-.582.134-.267.387-.426a1.13 1.13 0 0 1 .619-.162q.369 0 .619.162.25.159.378.426.128.264.128.582v.307q0 .319-.131.586a1.03 1.03 0 0 1-.381.426 1.1 1.1 0 0 1-.613.159q-.37 0-.622-.159a1.05 1.05 0 0 1-.384-.426 1.3 1.3 0 0 1-.131-.586m.58-.307v.307q0 .264.125.475.124.207.432.207.299 0 .42-.207a.9.9 0 0 0 .125-.475v-.307a.93.93 0 0 0-.119-.471q-.12-.21-.426-.21-.299 0-.429.21a.9.9 0 0 0-.128.471m-.364 4.728 4-5.818h.648l-4 5.818z"/><path id="Vector_43" fill="#c7c2ca" d="M645 134.674h-29v3.768h29z" opacity=".45"/></g><g id="BOX_FSAG12"><path id="Vector_44" fill="#171424" stroke="#d95378" d="M780 81.93h-67c-1.657 0-3 1.687-3 3.768v57.767c0 2.081 1.343 3.768 3 3.768h67c1.657 0 3-1.687 3-3.768V85.698c0-2.081-1.343-3.768-3-3.768Z"/><path id="FSAG12" fill="#ff9aac" d="M728.881 98.21v-7.273h4.36v.78h-3.48v2.458h3.154v.782h-3.154v3.252zm9.846-5.455a1.12 1.12 0 0 0-.518-.838q-.455-.3-1.115-.299-.483 0-.846.157a1.35 1.35 0 0 0-.561.43q-.199.273-.199.62a.9.9 0 0 0 .139.501q.142.207.362.345.22.134.462.224.241.085.444.138l.738.199q.284.075.632.206.352.132.672.359.323.223.532.575.21.351.21.863 0 .59-.309 1.065-.306.476-.895.757-.586.28-1.424.28-.781 0-1.353-.252a2.16 2.16 0 0 1-.895-.703q-.322-.45-.366-1.048h.909q.036.412.277.682.246.267.618.398.376.128.81.128.504 0 .905-.164a1.55 1.55 0 0 0 .636-.461q.234-.3.235-.696a.85.85 0 0 0-.203-.59 1.5 1.5 0 0 0-.533-.37 6 6 0 0 0-.713-.248l-.895-.255q-.852-.246-1.35-.7-.497-.455-.497-1.19 0-.61.33-1.065.334-.458.895-.71.565-.255 1.261-.256.703 0 1.25.252.547.249.866.682.324.433.341.984zm2.698 5.454h-.923l2.67-7.272h.909l2.671 7.272h-.924l-2.173-6.122h-.057zm.341-2.84h3.722v.78h-3.722zm10.748-2.16a2.6 2.6 0 0 0-.309-.642 1.96 1.96 0 0 0-1.04-.8 2.4 2.4 0 0 0-.724-.106 2.16 2.16 0 0 0-1.176.334q-.529.333-.842.983t-.312 1.595q0 .945.316 1.594t.856.984 1.214.334q.626 0 1.101-.266.48-.27.746-.76.27-.495.27-1.162l.27.057h-2.188v-.781h2.77v.781q0 .9-.383 1.563a2.65 2.65 0 0 1-1.052 1.03q-.667.362-1.534.362-.965 0-1.697-.455a3.06 3.06 0 0 1-1.136-1.292q-.405-.839-.405-1.99 0-.862.231-1.55.234-.694.66-1.18t1.009-.746q.582-.258 1.282-.259.575 0 1.072.174a2.87 2.87 0 0 1 1.548 1.236q.263.434.362.962zm4.889-2.272v7.272h-.88v-6.35h-.043l-1.775 1.18v-.895l1.818-1.207zm2.092 7.272v-.639l2.401-2.628q.421-.461.696-.802.273-.344.404-.647.135-.305.135-.639a1.2 1.2 0 0 0-.184-.664 1.2 1.2 0 0 0-.497-.433 1.6 1.6 0 0 0-.711-.153q-.419 0-.731.174a1.2 1.2 0 0 0-.48.48 1.5 1.5 0 0 0-.166.724h-.839q0-.639.295-1.122a2.05 2.05 0 0 1 .803-.753q.511-.27 1.147-.27.639 0 1.133.27.493.27.774.728.28.457.28 1.02 0 .4-.145.784-.143.38-.498.849-.35.465-.976 1.136l-1.634 1.747v.057h3.381v.781z"/><path id="76.0_2" fill="#ffa3b9" d="m727.568 119.535 5.205-10.296v-.09h-6v-1.25h7.454v1.318l-5.182 10.318zm12.391.159a4.4 4.4 0 0 1-1.432-.273 3.44 3.44 0 0 1-1.307-.88q-.59-.626-.949-1.688-.358-1.068-.358-2.682 0-1.545.29-2.738.29-1.2.841-2.017.551-.824 1.33-1.25.783-.427 1.767-.427.977 0 1.738.392.768.387 1.25 1.08.484.693.625 1.597h-1.386a2.58 2.58 0 0 0-.75-1.302q-.557-.517-1.477-.517-1.353 0-2.131 1.177-.773 1.176-.778 3.301h.09a3.43 3.43 0 0 1 1.733-1.358 3.4 3.4 0 0 1 1.131-.188 3.5 3.5 0 0 1 1.83.5q.83.495 1.329 1.37.5.869.5 1.994 0 1.08-.483 1.977a3.7 3.7 0 0 1-1.358 1.421q-.869.523-2.045.511m0-1.25q.716 0 1.284-.358.574-.359.903-.96.336-.603.336-1.341 0-.722-.324-1.313a2.47 2.47 0 0 0-.881-.948 2.33 2.33 0 0 0-1.273-.353q-.54 0-1.005.216-.466.21-.819.58a2.8 2.8 0 0 0-.545.846 2.69 2.69 0 0 0 1.023 3.262q.573.369 1.301.369m6.574 1.182a.99.99 0 0 1-.722-.301.99.99 0 0 1-.301-.722q0-.42.301-.722a.99.99 0 0 1 .722-.301q.42 0 .721.301a.99.99 0 0 1 .301.722.96.96 0 0 1-.142.511 1.05 1.05 0 0 1-.369.375.97.97 0 0 1-.511.137m6.795.068q-1.284 0-2.187-.699-.904-.705-1.381-2.04-.477-1.34-.477-3.238 0-1.887.477-3.222.483-1.341 1.386-2.045.91-.711 2.182-.711 1.273 0 2.176.711.909.704 1.387 2.045.483 1.335.483 3.222 0 1.897-.478 3.238-.477 1.335-1.38 2.04-.904.699-2.188.699m0-1.25q1.274 0 1.977-1.227.705-1.227.705-3.5 0-1.512-.324-2.574-.318-1.062-.92-1.619a2.03 2.03 0 0 0-1.438-.557q-1.262 0-1.971 1.244-.711 1.239-.711 3.506 0 1.51.318 2.568.32 1.056.915 1.608.603.55 1.449.551"/><path id="%_4" fill="#e5dce1" d="M764.568 118.979v-.307q0-.318.131-.582a1.05 1.05 0 0 1 .386-.426q.256-.162.62-.162.369 0 .619.162.25.159.378.426.128.264.128.582v.307q0 .318-.131.585a1.03 1.03 0 0 1-.381.426 1.1 1.1 0 0 1-.613.159q-.37 0-.623-.159a1.06 1.06 0 0 1-.383-.426 1.3 1.3 0 0 1-.131-.585m.58-.307v.307q0 .264.125.474.125.208.432.208.298 0 .42-.208a.9.9 0 0 0 .125-.474v-.307a.94.94 0 0 0-.119-.472q-.12-.21-.426-.21-.298 0-.429.21a.9.9 0 0 0-.128.472m-3.478-3.023v-.307q0-.318.131-.582.133-.267.387-.426a1.13 1.13 0 0 1 .619-.162q.369 0 .619.162.25.159.378.426.128.264.128.582v.307q0 .319-.131.586a1.03 1.03 0 0 1-.381.426 1.1 1.1 0 0 1-.613.159q-.37 0-.622-.159a1.05 1.05 0 0 1-.384-.426 1.3 1.3 0 0 1-.131-.586m.58-.307v.307q0 .264.125.475.124.207.432.207.299 0 .42-.207a.9.9 0 0 0 .125-.475v-.307a.93.93 0 0 0-.119-.471q-.12-.21-.426-.21-.299 0-.429.21a.9.9 0 0 0-.128.471m-.364 4.728 4-5.818h.648l-4 5.818z"/><path id="Vector_45" fill="#c7c2ca" d="M761 134.674h-29v3.768h29z" opacity=".45"/></g><g id="BOX_nicvs1" data-role="cascade-2"><path id="Vector_46" fill="#102118" stroke="#64b85e" d="M298.75 227.605h-58.5c-1.795 0-3.25 1.73-3.25 3.864v42.504c0 2.134 1.455 3.864 3.25 3.864h58.5c1.795 0 3.25-1.73 3.25-3.864v-42.504c0-2.134-1.455-3.864-3.25-3.864Z"/><path id="nicvs1" fill="#a4ff87" d="M256.605 240.602v3.282h-.838v-5.455h.81v.852h.071q.192-.415.582-.667.391-.256 1.009-.256.554 0 .969.227.416.225.646.682.231.455.231 1.151v3.466h-.838v-3.409q0-.644-.334-1.002-.334-.362-.916-.362-.4 0-.717.174a1.24 1.24 0 0 0-.494.508q-.181.333-.181.809m5.012 3.282v-5.455h.838v5.455zm.426-6.364a.6.6 0 0 1-.423-.167.54.54 0 0 1-.174-.401q0-.234.174-.401a.6.6 0 0 1 .423-.167q.245 0 .419.167a.53.53 0 0 1 .177.401q0 .234-.177.401a.59.59 0 0 1-.419.167m4.163 6.477q-.768 0-1.321-.362a2.36 2.36 0 0 1-.853-.998q-.298-.635-.298-1.452 0-.831.305-1.467.31-.64.86-.998.554-.362 1.292-.362.576 0 1.037.213.462.213.757.597.294.384.365.895h-.838a1.3 1.3 0 0 0-.426-.661q-.327-.291-.88-.291a1.47 1.47 0 0 0-.86.256 1.66 1.66 0 0 0-.571.713 2.65 2.65 0 0 0-.203 1.076q0 .633.199 1.101.202.469.568.728.369.26.867.26.326 0 .593-.114t.451-.327.262-.511h.838a1.94 1.94 0 0 1-1.086 1.481 2.4 2.4 0 0 1-1.058.223m7.83-5.568-2.017 5.455h-.852l-2.017-5.455h.909l1.505 4.347h.057l1.506-4.347zm4.97 1.222-.753.213a1.4 1.4 0 0 0-.21-.366 1 1 0 0 0-.369-.298 1.34 1.34 0 0 0-.6-.117q-.5 0-.835.23-.33.228-.33.579 0 .313.227.494.228.181.711.302l.809.199q.732.177 1.09.543.36.362.359.934 0 .469-.27.838-.266.369-.746.582a2.7 2.7 0 0 1-1.115.213q-.834 0-1.381-.362t-.692-1.058l.795-.199q.114.44.43.661.32.22.834.22.586 0 .931-.249.348-.252.348-.604a.63.63 0 0 0-.199-.475q-.199-.196-.611-.292l-.909-.213q-.75-.178-1.101-.55-.348-.377-.348-.941 0-.462.259-.817.262-.355.714-.557a2.5 2.5 0 0 1 1.03-.203q.81 0 1.271.355.465.356.661.938m3.903-3.04v7.273h-.88v-6.35h-.043l-1.776 1.179v-.895l1.819-1.207z"/><path id="75" fill="#d0ffa2" d="m250.568 263.953 5.205-10.295v-.091h-6v-1.25h7.454v1.318l-5.182 10.318zm12.257.16q-1 0-1.801-.398a3.35 3.35 0 0 1-1.284-1.091 2.97 2.97 0 0 1-.528-1.58h1.363q.08.79.716 1.307.642.512 1.534.512.717 0 1.273-.336.563-.335.881-.92a2.73 2.73 0 0 0 .324-1.335q0-.762-.336-1.358a2.45 2.45 0 0 0-.909-.949 2.56 2.56 0 0 0-1.324-.352 3.7 3.7 0 0 0-1.096.164q-.563.165-.926.426l-1.319-.159.705-5.727h6.045v1.25h-4.863l-.409 3.432h.068q.358-.284.898-.472a3.4 3.4 0 0 1 1.125-.187q1.068 0 1.903.511.841.505 1.318 1.387.483.88.483 2.011 0 1.113-.5 1.989a3.66 3.66 0 0 1-1.363 1.375q-.87.5-1.978.5m6.661-.069a.98.98 0 0 1-.722-.301.98.98 0 0 1-.301-.721q0-.421.301-.722a.98.98 0 0 1 .722-.301q.42 0 .721.301a.98.98 0 0 1 .302.722.96.96 0 0 1-.143.511 1.06 1.06 0 0 1-.369.375.97.97 0 0 1-.511.136m6.795.069q-1.284 0-2.187-.699-.904-.705-1.381-2.04-.477-1.341-.477-3.239 0-1.886.477-3.221.483-1.341 1.386-2.046.91-.71 2.182-.71 1.273 0 2.176.71.91.705 1.387 2.046.483 1.335.483 3.221 0 1.898-.478 3.239-.477 1.335-1.38 2.04-.904.699-2.188.699m0-1.25q1.273 0 1.978-1.228.704-1.227.704-3.5 0-1.51-.324-2.574-.318-1.062-.92-1.619a2.03 2.03 0 0 0-1.438-.557q-1.262 0-1.971 1.245-.711 1.238-.711 3.505 0 1.512.319 2.568.318 1.058.914 1.608a2.07 2.07 0 0 0 1.449.552"/><path id="%_5" fill="#e7efe0" d="M287.568 263.397v-.306a1.3 1.3 0 0 1 .131-.583 1.05 1.05 0 0 1 .386-.426q.256-.162.62-.162.369 0 .619.162.25.159.378.426.128.264.128.583v.306q0 .32-.131.586a1.03 1.03 0 0 1-.381.426 1.1 1.1 0 0 1-.613.159q-.37 0-.623-.159a1.06 1.06 0 0 1-.383-.426 1.3 1.3 0 0 1-.131-.586m.58-.306v.306q0 .265.125.475.125.207.432.207.298 0 .42-.207a.9.9 0 0 0 .125-.475v-.306a.94.94 0 0 0-.119-.472q-.12-.21-.426-.21-.299 0-.429.21a.88.88 0 0 0-.128.472m-3.478-3.023v-.307q0-.318.131-.582.133-.267.387-.426a1.13 1.13 0 0 1 .619-.162q.369 0 .619.162.25.159.378.426.128.264.128.582v.307q0 .318-.131.585a1.03 1.03 0 0 1-.381.426 1.1 1.1 0 0 1-.613.159q-.37 0-.622-.159a1.05 1.05 0 0 1-.384-.426 1.3 1.3 0 0 1-.131-.585m.58-.307v.307q0 .264.125.474.125.208.432.208.298 0 .42-.208a.9.9 0 0 0 .125-.474v-.307a.93.93 0 0 0-.119-.471q-.12-.211-.426-.211-.298 0-.429.211a.9.9 0 0 0-.128.471m-.364 4.727 4-5.818h.648l-4 5.818z"/></g><g id="BOX_NOJ" data-role="cascade-3"><path id="Vector_47" fill="#102118" stroke="#64b85e" d="M508.855 227.605h-58.71c-1.737 0-3.145 1.686-3.145 3.767v42.698c0 2.08 1.408 3.767 3.145 3.767h58.71c1.737 0 3.145-1.687 3.145-3.767v-42.698c0-2.081-1.408-3.767-3.145-3.767Z"/><path id="NOJ" fill="#a4ff87" d="M475.648 236.611v7.273h-.853l-3.963-5.71h-.071v5.71h-.88v-7.273h.852l3.977 5.724h.071v-5.724zm7.898 3.636q0 1.15-.415 1.989t-1.14 1.293-1.655.454-1.655-.454q-.724-.454-1.14-1.293t-.415-1.989.415-1.988q.416-.839 1.14-1.293.725-.454 1.655-.454t1.655.454 1.14 1.293q.415.837.415 1.988m-.852 0q0-.944-.316-1.594-.312-.65-.849-.984a2.2 2.2 0 0 0-1.193-.334q-.66 0-1.197.334-.533.334-.848.984-.313.65-.313 1.594t.313 1.595q.315.65.848.983.537.334 1.197.334t1.193-.334q.537-.333.849-.983.316-.65.316-1.595m5.117-3.636h.881v5.199q0 .696-.256 1.182-.255.487-.721.739t-1.097.252q-.597 0-1.062-.216a1.75 1.75 0 0 1-.731-.625 1.7 1.7 0 0 1-.267-.963h.867q0 .309.153.54.156.227.426.355t.614.128q.38 0 .646-.16.267-.16.405-.469a1.8 1.8 0 0 0 .142-.763z"/><path id="15.7" fill="#d0ffa2" d="M460.295 252.317v11.636h-1.409v-10.159h-.068l-2.841 1.887v-1.432l2.909-1.932zm6.983 11.796q-1 0-1.801-.398a3.35 3.35 0 0 1-1.284-1.091 2.97 2.97 0 0 1-.528-1.58h1.363q.08.79.716 1.307.643.512 1.534.512.717 0 1.273-.336.563-.335.881-.92a2.73 2.73 0 0 0 .324-1.335q0-.762-.336-1.358a2.45 2.45 0 0 0-.909-.949 2.56 2.56 0 0 0-1.323-.352 3.7 3.7 0 0 0-1.097.164q-.563.165-.926.426l-1.318-.159.704-5.727h6.046v1.25h-4.864l-.409 3.432h.068q.358-.284.898-.472.54-.187 1.125-.187 1.068 0 1.903.511.841.505 1.318 1.387.483.88.483 2.011 0 1.113-.5 1.989a3.66 3.66 0 0 1-1.363 1.375q-.87.5-1.978.5m6.661-.069q-.42 0-.722-.301a.99.99 0 0 1-.301-.721q0-.421.301-.722a.99.99 0 0 1 .722-.301q.42 0 .722.301.3.301.301.722a.97.97 0 0 1-.142.511q-.136.232-.37.375a.97.97 0 0 1-.511.136m3.535-.091 5.205-10.295v-.091h-6v-1.25h7.455v1.318l-5.182 10.318z"/><path id="kg/s_2" fill="#e7efe0" d="m489.239 262.897-.012-.829h.137l1.909-1.943h.829l-2.034 2.057h-.057zm-.625 1.591v-5.818h.67v5.818zm2.772 0-1.704-2.159.477-.466 2.08 2.625zm3.161 1.728q-.486 0-.835-.125a1.8 1.8 0 0 1-.583-.324 1.8 1.8 0 0 1-.366-.426l.534-.375q.09.119.23.272.14.157.381.27.245.117.639.117.528 0 .872-.256.344-.255.344-.801v-.886h-.057a4 4 0 0 1-.21.295 1.2 1.2 0 0 1-.387.31q-.25.133-.676.133a1.8 1.8 0 0 1-.949-.25 1.75 1.75 0 0 1-.662-.727q-.241-.477-.241-1.159 0-.67.236-1.168.236-.5.656-.773.42-.275.972-.275.426 0 .676.142.252.14.386.318.137.177.21.29h.069v-.693h.647v4.488q0 .562-.255.915-.253.355-.682.52a2.6 2.6 0 0 1-.949.168m-.023-2.398q.403 0 .682-.185t.423-.531a2.1 2.1 0 0 0 .145-.83q0-.47-.142-.832a1.25 1.25 0 0 0-.42-.565 1.13 1.13 0 0 0-.688-.205q-.426 0-.71.216a1.3 1.3 0 0 0-.423.58q-.14.363-.14.806 0 .454.142.804.145.347.427.546.284.196.704.196m5.193-5.421-1.875 6.966h-.613l1.875-6.966zm3.886 2.705-.602.17a1.1 1.1 0 0 0-.168-.292.8.8 0 0 0-.295-.239 1.1 1.1 0 0 0-.48-.094q-.401 0-.668.185-.264.182-.264.463 0 .25.182.395.181.145.568.242l.647.159q.586.141.873.434.287.29.287.747 0 .375-.216.671a1.43 1.43 0 0 1-.597.466 2.2 2.2 0 0 1-.892.17q-.667 0-1.105-.289-.437-.29-.554-.847l.636-.159a.88.88 0 0 0 .344.528q.255.176.668.176.468 0 .744-.198.279-.202.278-.483a.5.5 0 0 0-.159-.381q-.16-.156-.488-.233l-.728-.171q-.599-.141-.88-.44a1.07 1.07 0 0 1-.279-.753q0-.37.208-.653.21-.285.571-.446.363-.162.824-.162.646 0 1.017.284.372.284.528.75"/></g><g id="BOX_CSBHX"><path id="Vector_48" fill="#09223a" stroke="#2b8bdd" d="M307.365 334.349h-59.73c-1.455 0-2.635 1.687-2.635 3.767v42.698c0 2.081 1.18 3.767 2.635 3.767h59.73c1.455 0 2.635-1.686 2.635-3.767v-42.698c0-2.08-1.18-3.767-2.635-3.767Z"/><path id="CSBHX" fill="#a9d6ff" d="M267.733 345.628h-.881a1.84 1.84 0 0 0-.742-1.151 2 2 0 0 0-.607-.298 2.4 2.4 0 0 0-.696-.099q-.66 0-1.197.333-.532.335-.849.984-.312.65-.312 1.595 0 .944.312 1.594.317.65.849.984.536.333 1.197.333.361 0 .696-.099.334-.1.607-.295a1.86 1.86 0 0 0 .742-1.154h.881a2.9 2.9 0 0 1-.362.998 2.7 2.7 0 0 1-.654.749q-.39.306-.877.466a3.3 3.3 0 0 1-1.033.159q-.93 0-1.655-.454-.724-.454-1.14-1.293-.415-.838-.415-1.988 0-1.151.415-1.989.416-.839 1.14-1.293.725-.454 1.655-.454.55 0 1.033.16.487.159.877.468.392.306.654.746.263.437.362.998m5.4-.455a1.11 1.11 0 0 0-.518-.838q-.455-.298-1.115-.298a2.1 2.1 0 0 0-.845.156 1.35 1.35 0 0 0-.561.43 1.02 1.02 0 0 0-.199.621.9.9 0 0 0 .138.501q.143.205.362.345.22.135.462.223.242.085.444.139l.739.199q.284.074.632.206.351.131.671.358.323.224.533.576.209.351.209.862 0 .59-.309 1.066-.305.476-.895.756-.585.28-1.424.281-.781 0-1.353-.252a2.15 2.15 0 0 1-.895-.704 2 2 0 0 1-.365-1.047h.909q.035.412.277.682.245.266.618.397.375.128.809.128.504 0 .906-.163.4-.167.635-.462a1.1 1.1 0 0 0 .235-.696.85.85 0 0 0-.203-.589 1.5 1.5 0 0 0-.532-.37 6 6 0 0 0-.714-.248l-.895-.256q-.852-.244-1.349-.699-.498-.455-.498-1.19 0-.61.331-1.065.333-.458.895-.711.564-.255 1.26-.255.704 0 1.25.252.548.249.867.682.323.433.341.983zm2.4 5.455v-7.273h2.543q.76 0 1.253.263.493.26.735.7.242.436.242.969 0 .469-.167.774a1.3 1.3 0 0 1-.433.483 2 2 0 0 1-.579.263v.071q.333.021.671.234.337.213.565.611t.227.973q0 .547-.249.984-.248.437-.785.692-.536.256-1.395.256zm.881-.781h1.747q.863 0 1.225-.334a1.07 1.07 0 0 0 .366-.817q0-.369-.188-.682a1.37 1.37 0 0 0-.537-.504 1.7 1.7 0 0 0-.824-.192h-1.789zm0-3.296h1.633q.397 0 .718-.156a1.26 1.26 0 0 0 .511-.44q.192-.284.192-.668 0-.48-.334-.813-.334-.338-1.058-.338h-1.662zm5.623 4.077v-7.273h.881v3.239h3.877v-3.239h.881v7.273h-.881v-3.253h-3.877v3.253zm7.828-7.273 1.875 3.026h.057l1.875-3.026h1.037l-2.287 3.637 2.287 3.636h-1.037l-1.875-2.969h-.057l-1.875 2.969h-1.037l2.344-3.636-2.344-3.637z"/><path id="75.0_2" fill="#cbe6ff" d="m258.568 371.953 5.205-10.295v-.091h-6v-1.25h7.454v1.318l-5.182 10.318zm12.257.16q-1 0-1.801-.398a3.35 3.35 0 0 1-1.284-1.091 2.97 2.97 0 0 1-.528-1.58h1.363q.08.79.716 1.307.642.512 1.534.512.717 0 1.273-.336.563-.335.881-.92a2.73 2.73 0 0 0 .324-1.335q0-.762-.336-1.358a2.45 2.45 0 0 0-.909-.949 2.56 2.56 0 0 0-1.324-.352 3.7 3.7 0 0 0-1.096.164q-.563.165-.926.426l-1.319-.159.705-5.727h6.045v1.25h-4.863l-.409 3.432h.068q.358-.284.898-.472a3.4 3.4 0 0 1 1.125-.187q1.068 0 1.903.511.841.505 1.318 1.387.483.88.483 2.011 0 1.113-.5 1.989a3.66 3.66 0 0 1-1.363 1.375q-.87.5-1.978.5m6.661-.069a.98.98 0 0 1-.722-.301.98.98 0 0 1-.301-.721q0-.421.301-.722a.98.98 0 0 1 .722-.301q.42 0 .721.301a.98.98 0 0 1 .302.722.96.96 0 0 1-.143.511 1.06 1.06 0 0 1-.369.375.97.97 0 0 1-.511.136m6.795.069q-1.284 0-2.187-.699-.904-.705-1.381-2.04-.477-1.341-.477-3.239 0-1.886.477-3.221.483-1.341 1.386-2.046.91-.71 2.182-.71 1.273 0 2.176.71.91.705 1.387 2.046.483 1.335.483 3.221 0 1.898-.478 3.239-.477 1.335-1.38 2.04-.904.699-2.188.699m0-1.25q1.273 0 1.978-1.228.704-1.227.704-3.5 0-1.51-.324-2.574-.318-1.062-.92-1.619a2.03 2.03 0 0 0-1.438-.557q-1.262 0-1.971 1.245-.711 1.238-.711 3.505 0 1.512.319 2.568.318 1.058.914 1.608a2.07 2.07 0 0 0 1.449.552"/><path id="%_6" fill="#dbeefd" d="M295.568 370.142v-.307q0-.318.131-.583a1.05 1.05 0 0 1 .386-.426q.256-.162.62-.162.369 0 .619.162.25.159.378.426.128.265.128.583v.307q0 .318-.131.585a1.03 1.03 0 0 1-.381.426 1.1 1.1 0 0 1-.613.159q-.37 0-.623-.159a1.06 1.06 0 0 1-.383-.426 1.3 1.3 0 0 1-.131-.585m.58-.307v.307q0 .264.125.474.125.207.432.207.298 0 .42-.207a.9.9 0 0 0 .125-.474v-.307a.94.94 0 0 0-.119-.472q-.12-.21-.426-.21-.299 0-.429.21a.88.88 0 0 0-.128.472m-3.478-3.023v-.307q0-.318.131-.582.133-.267.387-.426a1.13 1.13 0 0 1 .619-.162q.369 0 .619.162.25.159.378.426.128.264.128.582v.307q0 .318-.131.585a1.03 1.03 0 0 1-.381.426 1.1 1.1 0 0 1-.613.16q-.37 0-.622-.16a1.05 1.05 0 0 1-.384-.426 1.3 1.3 0 0 1-.131-.585m.58-.307v.307q0 .264.125.475.125.207.432.207.298 0 .42-.207a.9.9 0 0 0 .125-.475v-.307a.93.93 0 0 0-.119-.471q-.12-.21-.426-.211-.298 0-.429.211a.9.9 0 0 0-.128.471m-.364 4.728 4-5.819h.648l-4 5.819z"/></g><g id="BOX_csgv"><path id="Vector_49" fill="#09223a" stroke="#2b8bdd" d="M483.132 334.349h-59.264c-1.584 0-2.868 1.687-2.868 3.767v42.698c0 2.081 1.284 3.767 2.868 3.767h59.264c1.584 0 2.868-1.686 2.868-3.767v-42.698c0-2.08-1.284-3.767-2.868-3.767Z"/><path id="csgv" fill="#a9d6ff" d="M444.983 350.742q-.767 0-1.321-.363a2.36 2.36 0 0 1-.852-.998q-.299-.635-.299-1.452 0-.831.306-1.467a2.4 2.4 0 0 1 .859-.997q.553-.363 1.293-.363.575 0 1.037.213t.756.597.366.895h-.838a1.3 1.3 0 0 0-.426-.661q-.327-.291-.881-.291-.49 0-.859.256a1.66 1.66 0 0 0-.572.714 2.6 2.6 0 0 0-.203 1.076q0 .632.199 1.1.203.47.568.728.37.26.867.26.327 0 .593-.114a1.22 1.22 0 0 0 .714-.838h.838a1.95 1.95 0 0 1-.352.87 1.96 1.96 0 0 1-.735.611 2.4 2.4 0 0 1-1.058.224m7.234-4.347-.753.213a1.4 1.4 0 0 0-.21-.366q-.135-.18-.369-.298a1.34 1.34 0 0 0-.6-.117q-.5 0-.835.231-.33.227-.33.578 0 .313.227.494.228.181.711.302l.809.199q.732.177 1.09.543.359.363.359.934 0 .47-.27.838-.266.369-.746.582a2.7 2.7 0 0 1-1.115.214q-.834 0-1.381-.363-.547-.362-.692-1.058l.795-.199q.114.44.43.661.32.22.834.22.586 0 .931-.249.348-.252.348-.603a.64.64 0 0 0-.199-.476q-.199-.195-.611-.291l-.909-.213q-.75-.178-1.101-.551-.348-.377-.348-.941 0-.462.259-.817.263-.354.714-.557a2.5 2.5 0 0 1 1.03-.203q.81 0 1.271.355.465.356.661.938m3.562 6.392a3.1 3.1 0 0 1-1.044-.156 2.2 2.2 0 0 1-.728-.405 2.2 2.2 0 0 1-.458-.533l.668-.469q.114.15.287.341.174.196.476.338.306.145.799.145.661 0 1.09-.319.43-.32.43-1.002v-1.108h-.071q-.092.15-.263.37a1.5 1.5 0 0 1-.483.387q-.312.167-.845.167-.66 0-1.186-.313a2.2 2.2 0 0 1-.827-.909q-.302-.597-.302-1.449 0-.838.295-1.459a2.27 2.27 0 0 1 .82-.966 2.16 2.16 0 0 1 1.214-.345q.533 0 .846.178.315.173.483.398.17.22.262.362h.086v-.867h.809v5.611q0 .703-.319 1.144a1.8 1.8 0 0 1-.853.649q-.532.21-1.186.21m-.028-2.997q.504 0 .852-.231a1.43 1.43 0 0 0 .529-.664q.181-.434.181-1.037 0-.59-.177-1.04a1.56 1.56 0 0 0-.526-.707q-.348-.256-.859-.256-.533 0-.888.27-.351.27-.529.724-.174.456-.174 1.009 0 .568.178 1.005.18.433.532.682.356.245.881.245m8.381-4.617-2.017 5.455h-.853l-2.017-5.455h.909l1.506 4.347h.057l1.505-4.347z"/><path id="75.0_3" fill="#cbe6ff" d="m438.568 371.953 5.205-10.295v-.091h-6v-1.25h7.454v1.318l-5.182 10.318zm12.257.16q-1 0-1.801-.398a3.35 3.35 0 0 1-1.284-1.091 2.97 2.97 0 0 1-.528-1.58h1.363q.08.79.716 1.307.642.512 1.534.512.717 0 1.273-.336.563-.335.881-.92a2.73 2.73 0 0 0 .324-1.335q0-.762-.336-1.358a2.45 2.45 0 0 0-.909-.949 2.56 2.56 0 0 0-1.324-.352 3.7 3.7 0 0 0-1.096.164q-.563.165-.926.426l-1.319-.159.705-5.727h6.045v1.25h-4.863l-.409 3.432h.068q.358-.284.898-.472a3.4 3.4 0 0 1 1.125-.187q1.068 0 1.903.511.841.505 1.318 1.387.483.88.483 2.011 0 1.113-.5 1.989a3.66 3.66 0 0 1-1.363 1.375q-.87.5-1.978.5m6.661-.069a.98.98 0 0 1-.722-.301.98.98 0 0 1-.301-.721q0-.421.301-.722a.98.98 0 0 1 .722-.301q.42 0 .721.301a.98.98 0 0 1 .302.722.96.96 0 0 1-.143.511 1.06 1.06 0 0 1-.369.375.97.97 0 0 1-.511.136m6.795.069q-1.284 0-2.187-.699-.904-.705-1.381-2.04-.477-1.341-.477-3.239 0-1.886.477-3.221.483-1.341 1.386-2.046.91-.71 2.182-.71 1.273 0 2.176.71.91.705 1.387 2.046.483 1.335.483 3.221 0 1.898-.478 3.239-.477 1.335-1.38 2.04-.904.699-2.188.699m0-1.25q1.273 0 1.978-1.228.704-1.227.704-3.5 0-1.51-.324-2.574-.318-1.062-.92-1.619a2.03 2.03 0 0 0-1.438-.557q-1.261 0-1.971 1.245-.711 1.238-.711 3.505 0 1.512.319 2.568.318 1.058.914 1.608a2.07 2.07 0 0 0 1.449.552"/></g><g id="BOX_GENERATOR"><path id="box_GENERATOR" fill="url(#paint2_linear_1_2)" stroke="#2a4d6e" d="M644 246.698h-73c-3.866 0-7 3.935-7 8.79v156.977c0 4.855 3.134 8.791 7 8.791h73c3.866 0 7-3.936 7-8.791V255.488c0-4.855-3.134-8.79-7-8.79Z"/><path id="logo" fill="#142a43" stroke="#c7e7ff" d="M608 316.767c12.15 0 22-12.369 22-27.627 0-15.259-9.85-27.628-22-27.628s-22 12.369-22 27.628c0 15.258 9.85 27.627 22 27.627Z"/><path id="G" fill="#e9f5ff" d="M611.534 285.581a4.6 4.6 0 0 0-.556-1.157 3.6 3.6 0 0 0-.812-.882 3.4 3.4 0 0 0-1.061-.556 4.2 4.2 0 0 0-1.304-.192q-1.163 0-2.116.601t-1.515 1.771-.562 2.87.569 2.87 1.54 1.771q.972.6 2.186.6 1.125 0 1.982-.479a3.4 3.4 0 0 0 1.342-1.368q.486-.888.486-2.09l.486.102h-3.938v-1.406h4.986v1.406q0 1.617-.69 2.813a4.77 4.77 0 0 1-1.892 1.853q-1.202.652-2.762.652-1.738 0-3.055-.818-1.31-.818-2.045-2.327-.729-1.507-.729-3.579 0-1.554.415-2.793.423-1.247 1.189-2.123a5.2 5.2 0 0 1 1.816-1.342q1.048-.466 2.307-.466 1.035 0 1.931.313a5.18 5.18 0 0 1 2.786 2.224q.474.78.652 1.732z"/><path id="GENERATOR" fill="#b8cad8" d="M583.852 407a2.6 2.6 0 0 0-.309-.643 1.96 1.96 0 0 0-1.04-.799 2.4 2.4 0 0 0-.725-.106q-.645 0-1.175.334-.529.333-.842.983t-.312 1.595.316 1.594.856.984q.54.333 1.214.334a2.2 2.2 0 0 0 1.101-.267q.48-.27.746-.76.27-.493.27-1.161l.27.057h-2.188v-.781h2.77v.781q0 .899-.384 1.562a2.64 2.64 0 0 1-1.051 1.03q-.667.363-1.534.362-.966 0-1.697-.454-.728-.455-1.137-1.293-.404-.837-.404-1.988 0-.864.23-1.552.235-.693.661-1.179t1.008-.746a3.1 3.1 0 0 1 1.282-.259q.576 0 1.073.174a2.87 2.87 0 0 1 1.548 1.236q.263.432.362.962zm2.46 5v-7.273h4.39v.782h-3.509v2.457h3.281v.781h-3.281v2.472h3.565V412zm11.744-7.273V412h-.852l-3.963-5.71h-.071V412h-.881v-7.273h.852l3.977 5.725h.071v-5.725zm1.762 7.273v-7.273h4.389v.782h-3.508v2.457h3.281v.781h-3.281v2.472h3.565V412zm5.977 0v-7.273h2.457q.852 0 1.399.291.548.288.81.792.263.505.263 1.147 0 .644-.263 1.14a1.85 1.85 0 0 1-.806.782q-.543.28-1.389.28h-1.988v-.795h1.96q.582 0 .937-.171a1.07 1.07 0 0 0 .519-.483q.163-.315.163-.753 0-.436-.163-.763a1.1 1.1 0 0 0-.522-.504q-.359-.181-.948-.181h-1.549V412zm3.423-3.267 1.79 3.267h-1.023l-1.761-3.267zM612.49 412h-.924l2.671-7.273h.909l2.67 7.273h-.923l-2.173-6.122h-.057zm.34-2.841h3.722v.781h-3.722zm4.872-3.65v-.782h5.454v.782h-2.287V412h-.88v-6.491zm12.647 2.855q0 1.15-.415 1.988-.416.838-1.14 1.293-.725.454-1.655.454t-1.655-.454-1.14-1.293q-.415-.837-.415-1.988 0-1.15.415-1.989.416-.839 1.14-1.293.725-.454 1.655-.454t1.655.454 1.14 1.293.415 1.989m-.852 0q0-.945-.316-1.595-.313-.65-.849-.983a2.2 2.2 0 0 0-1.193-.334q-.66 0-1.197.334-.533.333-.849.983-.312.65-.312 1.595 0 .944.312 1.594.317.65.849.984.537.333 1.197.334.66 0 1.193-.334.536-.335.849-.984.316-.65.316-1.594M631.83 412v-7.273h2.457q.852 0 1.399.291.548.288.81.792.263.505.263 1.147 0 .644-.263 1.14a1.85 1.85 0 0 1-.806.782q-.543.28-1.389.28h-1.988v-.795h1.96q.582 0 .938-.171.359-.17.518-.483.163-.315.163-.753 0-.436-.163-.763a1.1 1.1 0 0 0-.522-.504q-.358-.181-.948-.181h-1.548V412zm3.423-3.267 1.79 3.267h-1.023l-1.761-3.267z"/><path id="dot_GENERATOR" fill="#48db7c" stroke="#71ffa1" d="M608 340.628c1.657 0 3-1.687 3-3.768s-1.343-3.767-3-3.767-3 1.687-3 3.767 1.343 3.768 3 3.768Z"/><path id="dot_GENERATOR_2" fill="#48db7c" stroke="#71ffa1" d="M608 380.558c1.657 0 3-1.687 3-3.767s-1.343-3.768-3-3.768-3 1.687-3 3.768 1.343 3.767 3 3.767Z"/></g><g id="BOX_COMPRESSOR"><path id="box_COMPRESSOR" fill="url(#paint3_linear_1_2)" stroke="#2a4d6e" d="M741 246.442h-74c-3.866 0-7 3.936-7 8.791v158.232c0 4.855 3.134 8.791 7 8.791h74c3.866 0 7-3.936 7-8.791V255.233c0-4.855-3.134-8.791-7-8.791Z"/><path id="COMPRESSOR" fill="#b8cad8" d="M675.733 407h-.881a1.84 1.84 0 0 0-.742-1.151 2 2 0 0 0-.607-.298 2.4 2.4 0 0 0-.696-.099q-.66 0-1.197.334-.533.333-.849.983-.312.65-.312 1.595 0 .944.312 1.594.316.65.849.984.536.333 1.197.334.361 0 .696-.1.333-.099.607-.295a1.86 1.86 0 0 0 .742-1.154h.881a2.9 2.9 0 0 1-.362.998 2.7 2.7 0 0 1-.654.749q-.39.306-.877.466a3.3 3.3 0 0 1-1.033.159q-.93 0-1.655-.454-.725-.455-1.14-1.293t-.415-1.988.415-1.989q.416-.839 1.14-1.293.725-.454 1.655-.454.55 0 1.033.16.487.159.877.468.391.306.654.746.263.437.362.998m7.559 1.364q0 1.15-.415 1.988-.416.838-1.14 1.293-.725.454-1.655.454t-1.655-.454-1.14-1.293q-.415-.837-.415-1.988 0-1.15.415-1.989.416-.839 1.14-1.293.725-.454 1.655-.454t1.655.454 1.14 1.293.415 1.989m-.852 0q0-.945-.316-1.595-.312-.65-.849-.983a2.2 2.2 0 0 0-1.193-.334q-.66 0-1.197.334-.533.333-.848.983-.313.65-.313 1.595 0 .944.313 1.594.315.65.848.984.537.333 1.197.334.661 0 1.193-.334.537-.335.849-.984.316-.65.316-1.594m2.333-3.637h1.051l2.472 6.037h.085l2.472-6.037h1.051V412h-.824v-5.526h-.071L688.736 412h-.795l-2.273-5.526h-.071V412h-.824zM693.67 412v-7.273h2.457q.856 0 1.399.309.548.306.81.828.263.522.263 1.164 0 .643-.263 1.169-.259.525-.803.838-.543.309-1.392.309h-1.761v-.782h1.733q.586 0 .941-.202t.515-.547q.163-.347.163-.785a1.8 1.8 0 0 0-.163-.781 1.17 1.17 0 0 0-.519-.54q-.358-.198-.951-.198h-1.549V412zm6.347 0v-7.273h2.458q.852 0 1.399.291.547.288.81.792.262.505.262 1.147 0 .644-.262 1.14a1.86 1.86 0 0 1-.807.782q-.543.28-1.388.28H700.5v-.795h1.961q.582 0 .937-.171.359-.17.519-.483.163-.315.163-.753 0-.436-.163-.763a1.1 1.1 0 0 0-.522-.504q-.36-.181-.949-.181h-1.548V412zm3.424-3.267L705.23 412h-1.022l-1.762-3.267zm2.973 3.267v-7.273h4.389v.782h-3.508v2.457h3.281v.781h-3.281v2.472h3.565V412zm9.954-5.455a1.12 1.12 0 0 0-.519-.838q-.454-.298-1.115-.298-.483 0-.845.156a1.36 1.36 0 0 0-.561.43 1.02 1.02 0 0 0-.199.621.9.9 0 0 0 .139.501q.141.206.362.345.22.135.461.223.241.085.444.139l.739.199q.284.074.632.206.351.131.671.358.323.224.533.576.21.351.209.863 0 .59-.309 1.065-.304.476-.894.756-.587.28-1.424.281-.782 0-1.353-.252a2.16 2.16 0 0 1-.895-.703 2 2 0 0 1-.366-1.048h.909q.036.412.277.682.245.266.618.398.376.127.81.127.504 0 .905-.163.402-.166.636-.462t.234-.696q0-.362-.202-.589a1.5 1.5 0 0 0-.533-.369 5.5 5.5 0 0 0-.714-.249l-.895-.256q-.852-.245-1.349-.699-.497-.455-.497-1.19 0-.61.33-1.065.334-.459.895-.71a3 3 0 0 1 1.261-.256q.702 0 1.25.252.546.249.866.682.323.434.341.983zm6.377 0a1.12 1.12 0 0 0-.519-.838q-.455-.298-1.115-.298a2.1 2.1 0 0 0-.845.156 1.36 1.36 0 0 0-.561.43 1.02 1.02 0 0 0-.199.621.9.9 0 0 0 .139.501q.141.206.362.345.22.135.461.223.241.085.444.139l.739.199q.284.074.632.206.351.131.671.358.323.224.533.576.21.351.209.863 0 .59-.309 1.065-.304.476-.894.756-.587.28-1.424.281-.781 0-1.353-.252a2.15 2.15 0 0 1-.895-.703 2 2 0 0 1-.366-1.048h.909q.036.412.277.682.244.266.618.398.376.127.81.127.504 0 .905-.163.401-.166.636-.462t.234-.696q0-.362-.202-.589a1.5 1.5 0 0 0-.533-.369 5.5 5.5 0 0 0-.714-.249l-.895-.256q-.852-.245-1.349-.699-.497-.455-.497-1.19 0-.61.33-1.065.334-.459.895-.71a3 3 0 0 1 1.261-.256q.702 0 1.25.252.546.249.866.682.323.434.341.983zm8.536 1.819q0 1.15-.416 1.988t-1.14 1.293-1.655.454-1.654-.454q-.724-.455-1.14-1.293t-.416-1.988.416-1.989 1.14-1.293 1.654-.454q.931 0 1.655.454t1.14 1.293.416 1.989m-.853 0q0-.945-.316-1.595-.312-.65-.848-.983a2.2 2.2 0 0 0-1.194-.334q-.66 0-1.196.334-.533.333-.849.983-.312.65-.312 1.595 0 .944.312 1.594.317.65.849.984a2.2 2.2 0 0 0 1.196.334q.662 0 1.194-.334.536-.335.848-.984.316-.65.316-1.594m2.334 3.636v-7.273h2.457q.852 0 1.399.291.548.288.81.792.263.505.263 1.147 0 .644-.263 1.14a1.85 1.85 0 0 1-.806.782q-.544.28-1.389.28h-1.989v-.795h1.961q.582 0 .937-.171.359-.17.519-.483.163-.315.163-.753 0-.436-.163-.763a1.1 1.1 0 0 0-.522-.504q-.358-.181-.948-.181h-1.549V412zm3.423-3.267 1.79 3.267h-1.023l-1.761-3.267z"/><path id="dot_COMPRESSOR" fill="#48db7c" stroke="#71ffa1" d="M704 379.558c1.657 0 3-1.687 3-3.767s-1.343-3.768-3-3.768-3 1.687-3 3.768 1.343 3.767 3 3.767Z"/></g><path id="COMBUSTOR" fill="#b8cad8" d="M779.733 407h-.881a1.84 1.84 0 0 0-.742-1.151 2 2 0 0 0-.607-.298 2.4 2.4 0 0 0-.696-.099q-.66 0-1.197.334-.533.333-.849.983-.312.65-.312 1.595 0 .944.312 1.594.317.65.849.984.536.333 1.197.334.361 0 .696-.1.333-.099.607-.295a1.86 1.86 0 0 0 .742-1.154h.881a2.9 2.9 0 0 1-.362.998 2.7 2.7 0 0 1-.654.749q-.39.306-.877.466a3.3 3.3 0 0 1-1.033.159q-.93 0-1.655-.454-.724-.455-1.14-1.293t-.415-1.988q0-1.15.415-1.989.416-.839 1.14-1.293.725-.454 1.655-.454.55 0 1.033.16.487.159.877.468.391.306.654.746.263.437.362.998m7.559 1.364q0 1.15-.415 1.988-.416.838-1.14 1.293-.725.454-1.655.454t-1.655-.454-1.14-1.293q-.415-.837-.415-1.988 0-1.15.415-1.989.416-.839 1.14-1.293.725-.454 1.655-.454t1.655.454 1.14 1.293.415 1.989m-.852 0q0-.945-.316-1.595-.312-.65-.849-.983a2.2 2.2 0 0 0-1.193-.334q-.66 0-1.197.334-.533.333-.848.983-.313.65-.313 1.595 0 .944.313 1.594.315.65.848.984.537.333 1.197.334.661 0 1.193-.334.537-.335.849-.984.316-.65.316-1.594m2.333-3.637h1.051l2.472 6.037h.085l2.472-6.037h1.051V412h-.824v-5.526h-.071L792.736 412h-.795l-2.273-5.526h-.071V412h-.824zM797.67 412v-7.273h2.542q.76 0 1.254.263.493.26.735.7.241.436.241.969 0 .47-.166.774a1.3 1.3 0 0 1-.434.483q-.265.178-.579.263v.071q.335.021.672.234.338.213.564.611.228.398.228.973 0 .548-.249.984-.249.437-.785.692-.536.256-1.395.256zm.88-.781h1.748q.862 0 1.225-.334a1.07 1.07 0 0 0 .365-.817q0-.369-.188-.682a1.37 1.37 0 0 0-.536-.504 1.7 1.7 0 0 0-.824-.192h-1.79zm0-3.296h1.634q.398 0 .717-.156.323-.156.512-.44.19-.284.191-.668 0-.48-.333-.813-.334-.337-1.059-.337h-1.662zm10.396-3.196h.881v4.816q0 .746-.352 1.331a2.45 2.45 0 0 1-.983.92q-.636.334-1.492.334-.855 0-1.491-.334a2.5 2.5 0 0 1-.987-.92 2.55 2.55 0 0 1-.348-1.331v-4.816h.88v4.745q0 .533.235.948.234.411.667.65.438.234 1.044.234.608 0 1.044-.234.438-.239.668-.65.234-.416.234-.948zm6.617 1.818a1.12 1.12 0 0 0-.518-.838q-.455-.298-1.115-.298-.483 0-.846.156a1.36 1.36 0 0 0-.561.43 1.03 1.03 0 0 0-.199.621q0 .293.139.501.142.206.362.345.22.135.462.223.241.085.444.139l.738.199q.284.074.632.206.352.131.672.358.323.224.532.576.21.351.21.863 0 .59-.309 1.065-.306.476-.895.756-.586.28-1.424.281-.782 0-1.353-.252a2.16 2.16 0 0 1-.895-.703 2 2 0 0 1-.366-1.048h.909q.036.412.277.682.246.266.618.398.376.127.81.127.504 0 .905-.163.402-.166.636-.462t.234-.696q0-.362-.202-.589a1.5 1.5 0 0 0-.533-.369 6 6 0 0 0-.713-.249l-.895-.256q-.852-.245-1.35-.699-.497-.455-.497-1.19 0-.61.33-1.065.334-.459.895-.71a3 3 0 0 1 1.261-.256q.703 0 1.25.252.547.249.866.682.323.434.341.983zm2.002-1.036v-.782h5.455v.782h-2.287V412h-.881v-6.491zm12.647 2.855q0 1.15-.415 1.988-.416.838-1.14 1.293-.725.454-1.655.454t-1.655-.454-1.14-1.293q-.415-.837-.415-1.988 0-1.15.415-1.989.416-.839 1.14-1.293.725-.454 1.655-.454t1.655.454 1.14 1.293.415 1.989m-.852 0q0-.945-.316-1.595-.312-.65-.849-.983a2.2 2.2 0 0 0-1.193-.334q-.66 0-1.197.334-.533.333-.848.983-.313.65-.313 1.595 0 .944.313 1.594.315.65.848.984.537.333 1.197.334.66 0 1.193-.334.537-.335.849-.984.316-.65.316-1.594m2.333 3.636v-7.273h2.458q.852 0 1.399.291.546.288.809.792.264.505.263 1.147 0 .644-.263 1.14a1.85 1.85 0 0 1-.806.782q-.543.28-1.388.28h-1.989v-.795h1.96q.583 0 .938-.171.359-.17.518-.483.164-.315.164-.753 0-.436-.164-.763a1.1 1.1 0 0 0-.522-.504q-.359-.181-.948-.181h-1.548V412zm3.423-3.267 1.79 3.267h-1.022l-1.762-3.267z" data-role="combustor"/><g id="BOX_TURBINE"><path id="box_TURBINE" fill="url(#paint4_linear_1_2)" stroke="#2a4d6e" d="M934 246.442h-72c-3.866 0-7 3.936-7 8.791v158.232c0 4.855 3.134 8.791 7 8.791h72c3.866 0 7-3.936 7-8.791V255.233c0-4.855-3.134-8.791-7-8.791Z"/><path id="TURBINE" fill="#b8cad8" d="M876.483 405.509v-.782h5.455v.782h-2.287V412h-.881v-6.491zm11.586-.782h.881v4.816q0 .746-.351 1.331-.348.583-.984.92-.636.334-1.492.334-.855 0-1.491-.334a2.5 2.5 0 0 1-.987-.92 2.55 2.55 0 0 1-.348-1.331v-4.816h.88v4.745q0 .533.235.948.234.411.667.65.438.234 1.044.234t1.044-.234q.438-.239.668-.65.234-.416.234-.948zm2.64 7.273v-7.273h2.457q.852 0 1.399.291.548.288.81.792.263.505.263 1.147 0 .644-.263 1.14a1.85 1.85 0 0 1-.806.782q-.543.28-1.389.28h-1.988v-.795h1.96q.583 0 .937-.171a1.07 1.07 0 0 0 .519-.483q.163-.315.163-.753 0-.436-.163-.763a1.1 1.1 0 0 0-.522-.504q-.358-.181-.948-.181h-1.549V412zm3.423-3.267 1.79 3.267h-1.023l-1.761-3.267zm2.973 3.267v-7.273h2.543q.76 0 1.253.263.495.26.736.7.241.436.241.969 0 .47-.167.774a1.3 1.3 0 0 1-.433.483 2 2 0 0 1-.579.263v.071q.334.021.671.234t.565.611.227.973q0 .548-.248.984-.25.437-.785.692-.537.256-1.396.256zm.881-.781h1.747q.863 0 1.225-.334a1.07 1.07 0 0 0 .366-.817q0-.369-.188-.682a1.37 1.37 0 0 0-.536-.504 1.7 1.7 0 0 0-.824-.192h-1.79zm0-3.296h1.633q.399 0 .718-.156.323-.156.511-.44.192-.284.192-.668 0-.48-.334-.813-.333-.337-1.058-.337h-1.662zm6.504-3.196V412h-.881v-7.273zm7.533 0V412h-.853l-3.963-5.71h-.071V412h-.88v-7.273h.852l3.977 5.725h.071v-5.725zm1.762 7.273v-7.273h4.389v.782h-3.508v2.457h3.281v.781h-3.281v2.472h3.565V412z"/><path id="dot_TURBINE" fill="#48db7c" stroke="#71ffa1" d="M898 379.558c1.657 0 3-1.687 3-3.767s-1.343-3.768-3-3.768-3 1.687-3 3.768 1.343 3.767 3 3.767Z"/></g><path id="EXHAUST" fill="#b8cad8" d="M963.881 412v-7.273h4.389v.782h-3.509v2.457h3.282v.781h-3.282v2.472h3.566V412zm6.402-7.273 1.875 3.026h.057l1.875-3.026h1.037l-2.287 3.637 2.287 3.636h-1.037l-1.875-2.969h-.057L970.283 412h-1.037l2.344-3.636-2.344-3.637zm5.99 7.273v-7.273h.881v3.239h3.878v-3.239h.88V412h-.88v-3.253h-3.878V412zm7.701 0h-.923l2.67-7.273h.909l2.671 7.273h-.924l-2.173-6.122h-.057zm.341-2.841h3.721v.781h-3.721zm10.891-4.432h.881v4.816q0 .746-.352 1.331a2.46 2.46 0 0 1-.983.92q-.636.334-1.492.334t-1.491-.334a2.5 2.5 0 0 1-.988-.92 2.55 2.55 0 0 1-.348-1.331v-4.816h.881v4.745q0 .533.234.948.235.411.668.65.437.234 1.044.234.608 0 1.044-.234a1.66 1.66 0 0 0 .668-.65q.234-.416.234-.948zm6.614 1.818a1.1 1.1 0 0 0-.52-.838q-.45-.298-1.11-.298-.484 0-.846.156a1.36 1.36 0 0 0-.561.43 1.02 1.02 0 0 0-.199.621.9.9 0 0 0 .139.501q.141.206.362.345.22.135.462.223.241.085.443.139l.74.199q.285.074.63.206c.24.087.46.207.67.358.22.15.4.341.53.576q.21.351.21.863 0 .59-.3 1.065-.315.476-.9.756c-.39.187-.86.281-1.42.281q-.785 0-1.356-.252a2.16 2.16 0 0 1-.895-.703 2 2 0 0 1-.366-1.048h.909q.036.412.277.682.245.266.618.398.376.127.813.127.495 0 .9-.163c.27-.111.48-.265.64-.462.15-.198.23-.43.23-.696a.88.88 0 0 0-.2-.589 1.5 1.5 0 0 0-.53-.369 5.4 5.4 0 0 0-.72-.249l-.892-.256q-.852-.245-1.349-.699-.497-.455-.497-1.19 0-.61.33-1.065.334-.459.895-.71a3 3 0 0 1 1.263-.256c.47 0 .88.084 1.25.252.36.166.65.393.86.682.22.289.33.617.35.983zm2-1.036v-.782h5.46v.782h-2.29V412h-.88v-6.491z"/><g id="Machine"><path id="Vector_50" fill="url(#paint5_linear_1_2)" stroke="#b9d4e8" d="m669 224 94 43.953v72.838l-94-42.698z"/><path id="Vector_51" fill="#17131b" stroke="#b9d4e8" d="M836 210h-61c-3.314 0-6 3.373-6 7.535v167.023c0 4.162 2.686 7.535 6 7.535h61c3.314 0 6-3.373 6-7.535V217.535c0-4.162-2.686-7.535-6-7.535Z"/><path id="Vector_52" fill="#1b1520" stroke="#b9d4e8" d="M842 260.256h-73v45.209h73z"/><path id="Vector_53" fill="#1b1520" stroke="#b9d4e8" d="M842 305.465h-73v45.209h73z"/><path id="Vector_54" fill="#ff991f" stroke="#ffc16c" d="M806 333.093c1.657 0 3-1.687 3-3.767s-1.343-3.768-3-3.768-3 1.687-3 3.768 1.343 3.767 3 3.767Z"/><path id="Vector_55" fill="#ff991f" stroke="#ffc16c" d="M806 240.163c1.657 0 3-1.687 3-3.768s-1.343-3.767-3-3.767-3 1.687-3 3.767 1.343 3.768 3 3.768Z"/><path id="Vector_56" fill="#ff991f" stroke="#ffc16c" d="M806 286.628c1.657 0 3-1.687 3-3.768s-1.343-3.767-3-3.767-3 1.687-3 3.767 1.343 3.768 3 3.768Z"/><path id="Vector_57" fill="#ff991f" stroke="#ffc16c" d="M806 377.047c1.657 0 3-1.687 3-3.768s-1.343-3.767-3-3.767-3 1.686-3 3.767 1.343 3.768 3 3.768Z"/><path id="Vector_58" fill="url(#paint6_linear_1_2)" stroke="#b9d4e8" d="m842 223 82 36.484v81.774L842 379z"/><path id="Vector_59" fill="url(#paint7_linear_1_2)" stroke="#b9d4e8" d="m769 224-82 36.484v81.774L769 380z"/><path id="Vector_60" fill="url(#paint8_linear_1_2)" stroke="#b9d4e8" d="M1010 210.023h-46c-1.105 0-2 1.125-2 2.512v175.814c0 1.387.895 2.511 2 2.511h46c1.1 0 2-1.124 2-2.511V212.535c0-1.387-.9-2.512-2-2.512Z"/><path id="Vector_61" fill="url(#paint9_linear_1_2)" stroke="#b9d4e8" d="m924 269.651 33.25-22.604L962 237v126.837l-4.75-10.046L924 331.186z"/><g id="Vector_62"><path fill="#000" d="M1012 262.767h25zm0 20.093h24zm0 22.605h24z"/><path stroke="#b9d4e8" d="M1012 262.767h25m-25 20.093h24m-24 22.605h24"/></g></g><g id="exhaust-smoke-glow" filter="url(#filter0_f_1_2)" opacity=".65"><path id="Vector_63" fill="#90a8a7" d="M1066 300.442c13.81 0 25-7.872 25-17.582 0-9.709-11.19-17.581-25-17.581s-25 7.872-25 17.581c0 9.71 11.19 17.582 25 17.582" opacity=".55"/><path id="Vector_64" fill="#6f8988" d="M1054 286.628c9.39 0 17-5.06 17-11.302 0-6.243-7.61-11.303-17-11.303s-17 5.06-17 11.303c0 6.242 7.61 11.302 17 11.302" opacity=".45"/><path id="Vector_65" fill="#9aa696" d="M1082 301.698c9.39 0 17-4.498 17-10.047 0-5.548-7.61-10.046-17-10.046s-17 4.498-17 10.046c0 5.549 7.61 10.047 17 10.047" opacity=".38"/></g><g id="line_to_cards" stroke="#6e879c" stroke-dasharray="3 4" data-role="flow-cards"><path id="line_to_NOx" d="M1040 282.86h28V158.535c0-23.442 9.33-35.163 28-35.163"/><path id="line_to_TTXM" d="M1068 282.86v-42.697c0-20.093 10.33-30.14 31-30.14"/><path id="line_to_DWATT" d="M1068 282.86v6.459c0 5.741 10.33 8.611 31 8.611"/><path id="line_to_lambda" d="M1068 282.86v62.791c0 25.116 10.33 37.675 31 37.675"/></g><g id="metric_NOx" data-role="card-nox"><path id="dot_NOx" fill="#31e2ff" d="M1099 126.512c1.38 0 2.5-1.406 2.5-3.14s-1.12-3.139-2.5-3.139-2.5 1.405-2.5 3.139 1.12 3.14 2.5 3.14"/><path id="box_NOx" fill="#08223a" stroke="#19c8e9" d="M1275 94.488h-161c-2.76 0-5 2.812-5 6.279v55.256c0 3.468 2.24 6.279 5 6.279h161c2.76 0 5-2.811 5-6.279v-55.256c0-3.467-2.24-6.279-5-6.279Z" data-role="card-box-nox"/><path id="NOx" fill="#9fcde0" d="M1130.65 107.262v7.273h-.85l-3.97-5.71h-.07v5.71h-.88v-7.273h.85l3.98 5.725h.07v-5.725zm7.9 3.637q0 1.15-.42 1.988t-1.14 1.293q-.72.454-1.65.454c-.62 0-1.18-.151-1.66-.454q-.72-.454-1.14-1.293c-.28-.559-.41-1.221-.41-1.988 0-.768.13-1.43.41-1.989q.42-.838 1.14-1.293c.48-.303 1.04-.454 1.66-.454q.93 0 1.65.454t1.14 1.293.42 1.989m-.86 0c0-.63-.1-1.162-.31-1.595s-.49-.761-.85-.984a2.2 2.2 0 0 0-1.19-.333q-.66 0-1.2.333c-.36.223-.64.551-.85.984s-.31.965-.31 1.595c0 .629.1 1.161.31 1.594s.49.761.85.984q.54.333 1.2.333c.44 0 .83-.111 1.19-.333s.64-.551.85-.984.31-.965.31-1.594m2.85-1.819 1.31 2.23 1.3-2.23h.97l-1.76 2.728 1.76 2.727h-.97l-1.3-2.117-1.31 2.117h-.97l1.74-2.727-1.74-2.728z"/><path id="ppm" fill="#d3e8f1" d="M1189.84 142.901v-8.25h.89v.953h.11c.07-.104.17-.237.29-.398.12-.164.29-.31.52-.438q.345-.195.93-.195c.5 0 .95.126 1.33.379.39.253.69.611.91 1.074.21.464.32 1.011.32 1.641 0 .635-.11 1.186-.32 1.652q-.33.696-.9 1.078c-.38.253-.83.379-1.33.379-.38 0-.69-.064-.92-.191q-.345-.196-.54-.442c-.12-.166-.22-.304-.29-.414h-.07v3.172zm.91-5.25c0 .453.07.853.2 1.199.13.344.33.614.58.809.26.193.57.289.94.289.38 0 .71-.102.96-.305.26-.205.46-.481.59-.828.13-.349.2-.737.2-1.164 0-.422-.07-.802-.2-1.14a1.7 1.7 0 0 0-.58-.809c-.26-.201-.58-.301-.97-.301-.38 0-.69.095-.95.285q-.375.282-.57.789c-.13.336-.2.728-.2 1.176m5.8 5.25v-8.25h.89v.953h.11c.06-.104.16-.237.28-.398.12-.164.3-.31.52-.438q.345-.195.93-.195c.51 0 .95.126 1.34.379q.57.38.9 1.074c.22.464.32 1.011.32 1.641 0 .635-.1 1.186-.32 1.652q-.33.696-.9 1.078-.57.38-1.32.379-.585 0-.93-.191c-.23-.13-.41-.278-.53-.442a3.3 3.3 0 0 1-.29-.414h-.08v3.172zm.9-5.25c0 .453.07.853.2 1.199.14.344.33.614.58.809.26.193.57.289.94.289.39 0 .71-.102.97-.305.26-.205.45-.481.58-.828a3.1 3.1 0 0 0 .2-1.164c0-.422-.06-.802-.19-1.14a1.8 1.8 0 0 0-.59-.809c-.25-.201-.58-.301-.97-.301-.37 0-.69.095-.94.285-.26.188-.45.451-.58.789-.13.336-.2.728-.2 1.176m5.8 3v-6h.89v.938h.08c.12-.321.33-.569.6-.746.28-.18.62-.27 1.01-.27q.585 0 .99.27c.26.177.47.425.62.746h.06q.225-.465.69-.739.465-.277 1.11-.277c.53 0 .97.168 1.31.504.34.333.52.853.52 1.559v4.015h-.93v-4.015q0-.665-.36-.95a1.35 1.35 0 0 0-.86-.285c-.42 0-.74.128-.98.383-.23.253-.34.573-.34.961v3.906h-.94v-4.109q0-.512-.33-.824c-.22-.211-.51-.317-.86-.317-.24 0-.46.064-.67.192-.21.127-.37.304-.5.531-.13.224-.19.483-.19.777v3.75z"/><path id="spark_NOx" stroke="#27d2e7" stroke-width="1.2" d="M1226 129.651c8 22.605 13 0 18 10.047 5 10.046 10-10.047 15-10.047s8-16.325 12-10.046"/></g><g id="target-DWATT" data-role="card-dwatt"><path id="box_DWATT" fill="#09213c" stroke="#2d98f4" d="M1275 269.047h-161c-2.76 0-5 2.811-5 6.279v55.255c0 3.468 2.24 6.279 5 6.279h161c2.76 0 5-2.811 5-6.279v-55.255c0-3.468-2.24-6.279-5-6.279Z" data-role="card-box-dwatt"/><path id="dot_DWATT" fill="#38a7ff" d="M1099 301.07c1.38 0 2.5-1.406 2.5-3.14s-1.12-3.139-2.5-3.139-2.5 1.405-2.5 3.139 1.12 3.14 2.5 3.14"/><path id="DWATT" fill="#9fc5e8" d="M1127.12 287.837h-2.24v-7.273h2.34c.71 0 1.31.146 1.82.437.5.289.88.705 1.15 1.247.27.539.4 1.186.4 1.939 0 .757-.13 1.409-.4 1.956-.27.545-.67.964-1.18 1.257q-.78.438-1.89.437m-1.36-.781h1.31c.6 0 1.1-.116 1.49-.348.4-.232.69-.562.89-.991.19-.428.29-.939.29-1.53 0-.587-.1-1.093-.29-1.517a2.1 2.1 0 0 0-.86-.98c-.38-.229-.85-.344-1.42-.344h-1.41zm7.63.781-1.99-7.273h.9l1.52 5.924h.07l1.54-5.924h1l1.55 5.924h.07l1.52-5.924h.89l-1.99 7.273h-.9l-1.61-5.795h-.06l-1.6 5.795zm7.9 0h-.92l2.67-7.273h.91l2.67 7.273h-.92l-2.18-6.122h-.05zm.34-2.841h3.72v.782h-3.72zm4.87-3.65v-.782h5.46v.782h-2.29v6.491h-.88v-6.491zm6.42 0v-.782h5.46v.782h-2.29v6.491h-.88v-6.491z"/><path id="MW" fill="#d1e5f5" d="M1191.97 305.953h1.16l2.71 6.641h.1l2.72-6.641h1.15v8h-.9v-6.078h-.08l-2.5 6.078h-.88l-2.5-6.078h-.07v6.078h-.91zm11.24 8-2.19-8h.98l1.68 6.516h.07l1.71-6.516h1.09l1.7 6.516h.08l1.67-6.516h.99l-2.19 8h-1l-1.76-6.375h-.07l-1.76 6.375z"/><path id="spark_DWATT" stroke="#42aaf7" stroke-width="1.2" d="M1226 318.023c6-7.535 9 1.256 14-12.558 5 6.279 8-10.046 14-3.767 6 10.046 10-1.256 17-10.047"/></g><g id="target-TTXM" data-role="card-ttxm"><path id="box_TTXM" fill="#241708" stroke="#f18a19" d="M1275 181.14h-161c-2.76 0-5 2.811-5 6.279v55.255c0 3.468 2.24 6.279 5 6.279h161c2.76 0 5-2.811 5-6.279v-55.255c0-3.468-2.24-6.279-5-6.279Z" data-role="card-box-ttxm"/><path id="dot_TTXM" fill="#ff9a22" d="M1099 213.163c1.38 0 2.5-1.406 2.5-3.14s-1.12-3.139-2.5-3.139-2.5 1.405-2.5 3.139 1.12 3.14 2.5 3.14"/><path id="TTXM" fill="#ffc17d" d="M1124.48 194.695v-.782h5.46v.782h-2.29v6.491h-.88v-6.491zm6.42 0v-.782h5.45v.782h-2.28v6.491h-.88v-6.491zm7.24-.782 1.87 3.026h.06l1.88-3.026h1.03l-2.28 3.637 2.28 3.636h-1.03l-1.88-2.969h-.06l-1.87 2.969h-1.04l2.35-3.636-2.35-3.637zm5.99 0h1.05l2.47 6.037h.09l2.47-6.037h1.05v7.273h-.82v-5.526h-.08l-2.27 5.526h-.79l-2.28-5.526h-.07v5.526h-.82z"/><path id="&amp;#194;&amp;#176;C" fill="#f3d4b4" d="M1191.5 222.834c-.33 0-.63-.081-.91-.243a1.8 1.8 0 0 1-.64-.648 1.7 1.7 0 0 1-.25-.906c0-.331.08-.632.25-.903.16-.273.37-.491.64-.652.28-.161.58-.242.91-.242q.495 0 .9.242c.28.161.49.379.65.652.17.271.25.572.25.903 0 .33-.08.633-.25.906-.16.271-.37.487-.65.648q-.405.243-.9.243m0-.782q.285 0 .51-.136a1 1 0 0 0 .37-.368.998.998 0 0 0 0-1.023 1 1 0 0 0-.37-.367.96.96 0 0 0-.51-.137q-.285 0-.51.137a1 1 0 0 0-.37.367 1 1 0 0 0 0 1.023 1 1 0 0 0 .37.368q.225.136.51.136m9.77-.25h-.97a1.8 1.8 0 0 0-.3-.734 2 2 0 0 0-.51-.531c-.2-.146-.43-.256-.67-.328a2.7 2.7 0 0 0-.77-.11c-.48 0-.92.123-1.31.367-.39.245-.7.606-.94 1.082-.23.477-.34 1.062-.34 1.754 0 .693.11 1.278.34 1.754.24.477.55.837.94 1.082s.83.367 1.31.367c.27 0 .52-.036.77-.109.24-.073.47-.181.67-.324q.3-.219.51-.535.225-.321.3-.735h.97c-.07.409-.2.775-.4 1.098-.19.323-.43.598-.71.824-.29.224-.61.395-.97.512q-.525.176-1.14.176c-.68 0-1.29-.167-1.82-.5a3.4 3.4 0 0 1-1.25-1.422c-.31-.615-.46-1.344-.46-2.188 0-.843.15-1.573.46-2.187.3-.615.72-1.089 1.25-1.422s1.14-.5 1.82-.5q.615 0 1.14.176c.36.117.68.289.97.515.28.224.52.498.71.821.2.32.33.686.4 1.097"/><path id="spark_TTXM" stroke="#ff981f" stroke-width="1.2" d="M1226 230.116c8-7.535 10 0 15-20.093 7 25.117 12 5.024 18 8.791s8-20.093 13-15.07"/></g><g id="target-lambda" data-role="card-lambda"><path id="box_lambda" fill="#09213c" stroke="#2d98f4" d="M1275 355.698h-161c-2.76 0-5 2.811-5 6.279v55.256c0 3.467 2.24 6.279 5 6.279h161c2.76 0 5-2.812 5-6.279v-55.256c0-3.468-2.24-6.279-5-6.279Z" data-role="card-box-lambda"/><path id="dot_lambda" fill="#38a7ff" d="M1099 387.721c1.38 0 2.5-1.406 2.5-3.14s-1.12-3.139-2.5-3.139-2.5 1.405-2.5 3.139 1.12 3.14 2.5 3.14"/><path id="&amp;#206;&amp;#187; (lambda)" fill="#9fc5e8" d="M1129.11 374.563q-.405 0-.72-.242-.315-.241-.48-.742l-1.31-3.736-.26-.596-.21-.554c-.1-.251-.2-.439-.31-.565a.64.64 0 0 0-.4-.223 1.5 1.5 0 0 0-.58.049l-.22-.738c.05-.019.12-.041.24-.064.11-.024.23-.036.38-.036.39 0 .71.102.98.306.26.203.47.513.62.93l1.86 5.028c.03.093.08.185.13.277q.09.135.3.135c.03 0 .06-.002.1-.007.04-.004.08-.007.1-.007l.18.739c-.07.016-.14.028-.2.035-.07.01-.13.013-.2.011m-4.77-.075 2.13-5.781.34 1.591h-.11l-1.45 4.19zm9.39-3.068c0-.895.11-1.717.35-2.468.23-.753.56-1.445 1-2.077h.74a4.6 4.6 0 0 0-.48.866q-.225.511-.39 1.126c-.11.407-.2.829-.26 1.264-.07.436-.1.865-.1 1.289 0 .564.06 1.135.17 1.715s.25 1.119.44 1.616c.18.497.39.902.62 1.215h-.74a7.4 7.4 0 0 1-1-2.074c-.24-.753-.35-1.577-.35-2.472m4.16-4.204v7.272h-.84v-7.272zm3.14 7.4c-.35 0-.66-.065-.94-.195a1.6 1.6 0 0 1-.67-.572c-.17-.251-.25-.554-.25-.909q0-.469.18-.76c.13-.196.29-.35.5-.462.2-.111.43-.194.68-.248.25-.057.5-.102.76-.135.33-.043.6-.075.8-.096.21-.024.36-.063.46-.117.09-.055.14-.149.14-.284v-.029c0-.35-.09-.622-.29-.816-.18-.194-.47-.292-.86-.292-.4 0-.71.088-.94.263q-.345.262-.48.561l-.79-.284c.14-.331.33-.589.56-.774.24-.187.5-.317.79-.391.28-.075.56-.113.83-.113.18 0 .38.021.61.064q.345.06.66.252.33.192.54.579t.21 1.037v3.593h-.84v-.738h-.04c-.06.118-.15.245-.28.38-.14.135-.31.249-.53.344q-.33.142-.81.142m.13-.753q.495 0 .84-.195t.51-.504q.18-.31.18-.65v-.767c-.03.043-.11.082-.23.117-.12.033-.26.063-.41.089-.16.024-.31.045-.46.064l-.35.042a3.4 3.4 0 0 0-.61.139c-.18.061-.34.155-.45.28-.12.124-.17.292-.17.505 0 .291.11.511.32.66.22.147.49.22.83.22m3.9.625v-5.454h.81v.852h.07c.11-.291.3-.517.55-.678.25-.164.56-.245.91-.245q.54 0 .9.245.36.241.57.678h.05q.21-.422.63-.671c.28-.168.62-.252 1.01-.252.48 0 .88.153 1.19.458.31.303.47.775.47 1.417v3.65h-.84v-3.65q0-.604-.33-.863a1.22 1.22 0 0 0-.78-.259c-.38 0-.68.116-.89.348-.21.229-.31.52-.31.873v3.551h-.86v-3.735q0-.466-.3-.75-.3-.287-.78-.287c-.21 0-.42.058-.61.174a1.358 1.358 0 0 0-.62 1.189v3.409zm8.81 0v-7.272h.83v2.684h.07c.07-.094.15-.215.26-.362q.165-.224.48-.398c.2-.118.49-.177.84-.177.46 0 .86.115 1.22.344.35.23.62.555.82.977.19.421.29.918.29 1.491 0 .578-.1 1.079-.29 1.502-.2.422-.47.749-.82.981q-.525.344-1.2.344c-.36 0-.64-.058-.85-.174a1.5 1.5 0 0 1-.48-.401c-.12-.152-.2-.277-.27-.377h-.1v.838zm.82-2.727q0 .618.18 1.09c.12.313.3.558.53.735s.52.263.85.263c.35 0 .64-.092.88-.277.24-.187.41-.438.53-.753q.18-.476.18-1.058 0-.575-.18-1.037c-.11-.31-.29-.555-.52-.735-.24-.182-.53-.273-.89-.273-.34 0-.63.086-.86.259a1.5 1.5 0 0 0-.52.717q-.18.459-.18 1.069m7.33 2.841q-.675 0-1.2-.344c-.35-.232-.62-.559-.82-.981-.2-.423-.29-.924-.29-1.502 0-.573.09-1.07.29-1.491s.47-.747.82-.977.76-.344 1.22-.344q.525 0 .84.177c.21.116.36.249.47.398.11.147.2.268.26.362h.07v-2.684h.84v7.272h-.81v-.838h-.1c-.06.1-.15.225-.26.377a1.5 1.5 0 0 1-.49.401q-.315.174-.84.174m.12-.753c.33 0 .62-.087.85-.263s.41-.422.53-.735q.18-.472.18-1.09 0-.61-.18-1.069c-.12-.308-.29-.547-.52-.717a1.4 1.4 0 0 0-.86-.259c-.36 0-.66.091-.89.273-.24.18-.41.425-.53.735q-.18.462-.18 1.037 0 .582.18 1.058c.12.315.3.566.53.753.24.185.54.277.89.277m5.64.767c-.35 0-.66-.065-.94-.195a1.6 1.6 0 0 1-.67-.572c-.17-.251-.25-.554-.25-.909q0-.469.18-.76c.13-.196.29-.35.5-.462.2-.111.43-.194.68-.248a8 8 0 0 1 .75-.135c.34-.043.6-.075.81-.096q.315-.036.45-.117.15-.082.15-.284v-.029c0-.35-.1-.622-.29-.816s-.47-.292-.86-.292c-.4 0-.71.088-.94.263q-.345.262-.48.561l-.8-.284q.225-.496.57-.774.36-.28.78-.391.435-.113.84-.113c.18 0 .38.021.61.064.22.04.45.124.66.252q.315.192.54.579.21.387.21 1.037v3.593h-.84v-.738h-.04c-.06.118-.15.245-.29.38-.13.135-.31.249-.53.344s-.48.142-.8.142m.13-.753c.33 0 .61-.065.83-.195.23-.13.41-.298.52-.504q.18-.31.18-.65v-.767a.5.5 0 0 1-.23.117q-.18.05-.42.089-.225.036-.45.064l-.35.042c-.22.029-.42.075-.61.139a1 1 0 0 0-.45.28c-.12.124-.17.292-.17.505 0 .291.1.511.32.66.22.147.49.22.83.22m5.69-2.443c0 .895-.12 1.719-.35 2.472-.24.75-.57 1.442-1 2.074h-.74q.255-.352.48-.867.21-.512.39-1.122c.11-.41.19-.832.26-1.268q.09-.657.09-1.289a9 9 0 0 0-.16-1.715c-.11-.58-.26-1.119-.44-1.616-.19-.497-.39-.902-.62-1.214h.74a8 8 0 0 1 1 2.077c.23.751.35 1.573.35 2.468"/><path id="spark_lambda" stroke="#42aaf7" stroke-width="1.2" d="M1215 400.907c8 12.558 12-6.279 18-2.512 6-2.511 10-22.604 18-11.302 6 10.047 11-5.023 18-6.279"/></g><defs><linearGradient id="paint0_linear_1_2" x1="0" x2="1316" y1="0" y2="0" gradientUnits="userSpaceOnUse"><stop stop-color="#071a2a"/><stop offset=".52" stop-color="#061323"/><stop offset="1" stop-color="#06111f"/></linearGradient><linearGradient id="paint1_linear_1_2" x1="0" x2="0" y1="454.605" y2="540" gradientUnits="userSpaceOnUse"><stop stop-color="#071523" stop-opacity=".55"/><stop offset="1" stop-color="#0d1d2b" stop-opacity=".95"/></linearGradient><linearGradient id="paint2_linear_1_2" x1="564" x2="651" y1="246.698" y2="246.698" gradientUnits="userSpaceOnUse"><stop stop-color="#06101c"/><stop offset=".55" stop-color="#142944"/><stop offset="1" stop-color="#07111e"/></linearGradient><linearGradient id="paint3_linear_1_2" x1="660" x2="748" y1="246.442" y2="246.442" gradientUnits="userSpaceOnUse"><stop stop-color="#06101c"/><stop offset=".55" stop-color="#142944"/><stop offset="1" stop-color="#07111e"/></linearGradient><linearGradient id="paint4_linear_1_2" x1="855" x2="941" y1="246.442" y2="246.442" gradientUnits="userSpaceOnUse"><stop stop-color="#06101c"/><stop offset=".55" stop-color="#142944"/><stop offset="1" stop-color="#07111e"/></linearGradient><linearGradient id="paint5_linear_1_2" x1="669" x2="763" y1="224" y2="224" gradientUnits="userSpaceOnUse"><stop stop-color="#06101c"/><stop offset=".55" stop-color="#142944"/><stop offset="1" stop-color="#07111e"/></linearGradient><linearGradient id="paint6_linear_1_2" x1="842" x2="924" y1="223" y2="223" gradientUnits="userSpaceOnUse"><stop stop-color="#06101c"/><stop offset=".55" stop-color="#142944"/><stop offset="1" stop-color="#07111e"/></linearGradient><linearGradient id="paint7_linear_1_2" x1="769" x2="687" y1="224" y2="224" gradientUnits="userSpaceOnUse"><stop stop-color="#06101c"/><stop offset=".55" stop-color="#142944"/><stop offset="1" stop-color="#07111e"/></linearGradient><linearGradient id="paint8_linear_1_2" x1="962" x2="1012" y1="210.023" y2="210.023" gradientUnits="userSpaceOnUse"><stop stop-color="#06101c"/><stop offset=".55" stop-color="#142944"/><stop offset="1" stop-color="#07111e"/></linearGradient><linearGradient id="paint9_linear_1_2" x1="924" x2="962" y1="237" y2="237" gradientUnits="userSpaceOnUse"><stop stop-color="#06101c"/><stop offset=".55" stop-color="#142944"/><stop offset="1" stop-color="#07111e"/></linearGradient><filter id="filter0_f_1_2" width="98" height="73.674" x="1019" y="246.023" color-interpolation-filters="sRGB" filterUnits="userSpaceOnUse"><feFlood flood-opacity="0" result="BackgroundImageFix"/><feBlend in="SourceGraphic" in2="BackgroundImageFix" result="shape"/><feGaussianBlur result="effect1_foregroundBlur_1_2" stdDeviation="9"/></filter></defs></svg>